#N canvas 17 51 1254 727 10;
#X floatatom 722 335 5 0 0 0 - - -, f 5;
#X obj 721 372 change;
#X obj 722 406 metro 100;
#X obj 724 435 s kick;
#X obj 311 11 r ball_angle;
#X obj 313 120 hsl 128 15 -180 180 0 0 empty empty empty -2 -8 0 10
-262144 -1 -1 4071 1;
#X obj 523 80 r ball_distance;
#X obj 493 85 vsl 15 128 0 4 0 0 empty empty empty 0 -9 0 10 -262144
-1 -1 825 1;
#X obj 513 158 tgl 15 0 empty empty empty 17 7 0 10 -262144 -1 -1 0
1;
#X obj 320 618 vsl 15 100 -1 1 0 0 empty empty empty 0 -9 0 10 -262144
-1 -1 5445 1;
#X obj 548 638 hsl 100 15 -1 1 0 0 empty empty empty -2 -8 0 10 -262144
-1 -1 2184 1;
#X obj 950 102 r ball_detected;
#X floatatom 311 43 5 0 0 0 - - -, f 5;
#X floatatom 464 32 5 0 0 0 - - -, f 5;
#X obj 527 133 < 0.25;
#X obj 310 140 / 180;
#X obj 310 162 * 0.5;
#X obj 719 306 speedlim 100;
#X obj 1099 92 r angle2goal;
#X obj 242 248 abs;
#X obj 243 278 < 0.1;
#X obj 239 307 * 0.7;
#X text 1102 68 vision system;
#X obj 706 39 r compass_heading;
#X obj 706 65 abs;
#X floatatom 763 81 5 0 0 0 - - -, f 5;
#X obj 699 87 < 70;
#X floatatom 636 105 5 0 0 0 - - -, f 5;
#X floatatom 762 61 5 0 0 0 - - -, f 5;
#X obj 635 156 *;
#X floatatom 635 178 5 0 0 0 Facing_target_goal - -, f 5;
#X obj 635 131 t b f;
#X text 693 107 if holding ball and facing enemy goal \, start kicker.
, f 16;
#X obj 850 97 r range;
#X floatatom 850 124 5 0 0 0 - - -, f 5;
#N canvas 466 160 676 568 differential_drive 0;
#X obj 217 287 vsl 15 100 -1 1 0 0 empty empty empty 0 -9 0 10 -262144
-1 -1 2679 1;
#X obj 293 284 vsl 15 100 -1 1 0 0 empty empty empty 0 -9 0 10 -262144
-1 -1 8211 1;
#X obj 279 -22 vsl 15 100 -1 1 0 0 empty empty empty 0 -9 0 10 -262144
-1 -1 5445 1;
#X obj 235 117 hsl 100 15 -1 1 0 0 empty empty empty -2 -8 0 10 -262144
-1 -1 2184 1;
#X obj 217 237 +;
#X obj 293 237 +;
#X floatatom 275 91 5 0 0 0 - - -, f 5;
#X obj 217 259 clip -1 1;
#X obj 246 207 t b f;
#X obj 306 176 * -1;
#X obj 306 207 t b f;
#X obj 293 259 clip -1 1;
#X floatatom 177 149 5 0 0 0 - - -, f 5;
#X obj 151 451 s left_speed;
#X obj 301 449 s right_speed;
#X obj 116 52 inlet;
#X obj 434 53 inlet;
#X text 71 32 forward/ backwards;
#X text 412 30 left/right;
#X connect 0 0 13 0;
#X connect 1 0 14 0;
#X connect 2 0 6 0;
#X connect 3 0 8 0;
#X connect 3 0 9 0;
#X connect 3 0 12 0;
#X connect 4 0 7 0;
#X connect 5 0 11 0;
#X connect 6 0 4 0;
#X connect 6 0 5 0;
#X connect 7 0 0 0;
#X connect 8 0 4 0;
#X connect 8 1 4 1;
#X connect 9 0 10 0;
#X connect 10 0 5 0;
#X connect 10 1 5 1;
#X connect 11 0 1 0;
#X connect 15 0 2 0;
#X connect 16 0 3 0;
#X restore 401 667 pd differential_drive;
#X floatatom 562 662 5 0 0 0 - - -, f 5;
#X obj 255 478 *;
#X floatatom 227 511 5 0 0 0 - - -, f 5;
#X obj 297 444 t b f;
#X text 131 129 if ball is in front of you \, drive robot forward,
f 23;
#X obj 850 143 moses 0;
#X floatatom 1099 114 5 0 0 0 - - -, f 5;
#X obj 1099 133 / 35;
#X floatatom 1099 155 5 0 0 0 - - -, f 5;
#X obj 1095 397 snapshot~;
#X obj 1097 367 metro 100;
#X obj 1103 347 tgl 15 0 empty empty empty 17 7 0 10 -262144 -1 -1
1 1;
#X obj 1133 340 loadbang;
#X floatatom 1006 402 5 0 0 0 - - -, f 5;
#X obj 867 490 spigot;
#X floatatom 950 124 5 0 0 0 - - -, f 5;
#X obj 867 421 *;
#X obj 1088 299 phasor~ 0.85;
#X obj 1088 321 expr~ $v1 < 0.1;
#X text 1090 274 DIY pwm;
#X obj 896 191 tgl 50 0 empty empty way_is_clear 17 7 0 10 -262144
-1 -1 1 1;
#X obj 540 586 +;
#X obj 560 557 t b f;
#X obj 906 434 tgl 50 0 empty empty Enable_PWM_turning 17 7 0 10 -262144
-1 -1 0 1;
#X msg 562 533 0;
#X obj 566 514 bng 15 250 50 0 empty empty empty 17 7 0 10 -262144
-1 -1;
#X obj 523 462 == 0;
#X obj 523 487 moses 1;
#X obj 896 165 > 14;
#X obj 383 174 abs;
#X obj 395 223 tgl 50 0 empty empty Facing_Ball 17 7 0 10 -262144 -1
-1 0 1;
#X obj 421 299 *;
#X obj 459 259 t b f;
#X obj 1025 162 abs;
#X obj 1054 220 tgl 50 0 empty empty Facing_Goal 17 7 0 10 -262144
-1 -1 0 1;
#X obj 1027 185 < 20;
#X text 447 300 shoot mode;
#X obj 442 387 t b f;
#X obj 385 197 < 20;
#X text 20 571 when ball = -180 (behind us) and facing enemy goal.
required: distance \, ball angle \, compass heading, f 17;
#X obj 401 410 +;
#X obj 540 616 +;
#X obj 346 473 moses 1;
#X msg 337 510 0;
#X obj 319 583 +;
#X obj 436 321 tgl 50 0 empty empty SHOOT! 17 7 0 10 -262144 -1 -1
0 1;
#X msg 453 505 0;
#X floatatom 401 432 5 0 0 0 - - -, f 5;
#X floatatom 334 537 5 0 0 0 - - -, f 5;
#X obj 334 556 *;
#X msg 418 503 -0.2;
#X msg 303 511 0.1;
#X obj 1151 171 moses -180;
#X floatatom 238 668 5 0 0 0 - - -, f 5;
#X connect 0 0 1 0;
#X connect 1 0 2 0;
#X connect 2 0 3 0;
#X connect 4 0 12 0;
#X connect 5 0 15 0;
#X connect 6 0 7 0;
#X connect 6 0 13 0;
#X connect 6 0 14 0;
#X connect 9 0 89 0;
#X connect 10 0 36 0;
#X connect 10 0 35 1;
#X connect 11 0 51 0;
#X connect 12 0 5 0;
#X connect 12 0 65 0;
#X connect 14 0 8 0;
#X connect 14 0 29 0;
#X connect 15 0 16 0;
#X connect 15 0 19 0;
#X connect 15 0 57 0;
#X connect 17 0 0 0;
#X connect 18 0 42 0;
#X connect 18 0 69 0;
#X connect 19 0 20 0;
#X connect 20 0 21 0;
#X connect 21 0 37 0;
#X connect 23 0 24 0;
#X connect 23 0 28 0;
#X connect 24 0 25 0;
#X connect 24 0 26 0;
#X connect 26 0 27 0;
#X connect 27 0 31 0;
#X connect 29 0 30 0;
#X connect 30 0 17 0;
#X connect 30 0 59 0;
#X connect 31 0 29 0;
#X connect 31 1 29 1;
#X connect 33 0 34 0;
#X connect 34 0 41 0;
#X connect 37 0 38 0;
#X connect 37 0 80 0;
#X connect 39 0 37 0;
#X connect 39 1 37 1;
#X connect 41 1 64 0;
#X connect 42 0 43 0;
#X connect 43 0 44 0;
#X connect 44 0 52 0;
#X connect 45 0 49 0;
#X connect 46 0 45 0;
#X connect 47 0 46 0;
#X connect 48 0 47 0;
#X connect 49 0 52 1;
#X connect 50 0 58 0;
#X connect 52 0 50 0;
#X connect 53 0 54 0;
#X connect 54 0 45 0;
#X connect 56 0 73 0;
#X connect 56 0 85 1;
#X connect 57 0 77 0;
#X connect 58 0 57 0;
#X connect 58 1 57 1;
#X connect 59 0 50 1;
#X connect 59 0 62 0;
#X connect 60 0 58 0;
#X connect 61 0 60 0;
#X connect 62 0 63 0;
#X connect 63 1 61 0;
#X connect 64 0 56 0;
#X connect 65 0 74 0;
#X connect 66 0 67 0;
#X connect 67 0 76 0;
#X connect 67 0 78 0;
#X connect 67 0 81 0;
#X connect 68 0 67 0;
#X connect 68 1 67 1;
#X connect 69 0 71 0;
#X connect 70 0 68 0;
#X connect 71 0 70 0;
#X connect 73 0 76 0;
#X connect 73 1 76 1;
#X connect 74 0 66 0;
#X connect 76 0 39 0;
#X connect 76 0 83 0;
#X connect 77 0 10 0;
#X connect 78 0 86 0;
#X connect 78 0 87 0;
#X connect 78 1 82 0;
#X connect 78 1 79 0;
#X connect 79 0 84 0;
#X connect 80 0 35 0;
#X connect 80 0 9 0;
#X connect 82 0 77 1;
#X connect 84 0 85 0;
#X connect 85 0 80 1;
#X connect 86 0 77 1;
#X connect 87 0 84 0;
