#N canvas 0 51 1190 661 10;
#X floatatom 529 303 5 0 0 0 - - -, f 5;
#X obj 528 340 change;
#X obj 529 374 metro 100;
#X obj 531 403 s kick;
#X obj 311 11 r ball_angle;
#X obj 313 120 hsl 128 15 -180 180 0 0 empty empty empty -2 -8 0 10
-262144 -1 -1 6350 1;
#X obj 523 80 r ball_distance;
#X obj 493 85 vsl 15 128 0 4 0 0 empty empty empty 0 -9 0 10 -262144
-1 -1 2921 1;
#X obj 513 158 tgl 15 0 empty empty empty 17 7 0 10 -262144 -1 -1 0
1;
#X obj 151 330 vsl 15 100 -1 1 0 0 empty empty empty 0 -9 0 10 -262144
-1 -1 8415 1;
#X obj 375 313 hsl 100 15 -1 1 0 0 empty empty empty -2 -8 0 10 -262144
-1 -1 4950 1;
#X floatatom 199 443 5 0 0 0 - - -, f 5;
#X obj 950 102 r ball_detected;
#X floatatom 311 43 5 0 0 0 - - -, f 5;
#X floatatom 464 32 5 0 0 0 - - -, f 5;
#X obj 527 133 < 0.25;
#X obj 310 140 / 180;
#X obj 310 162 * 0.5;
#X obj 526 274 speedlim 100;
#X obj 1102 121 r angle2goal;
#X obj 243 203 abs;
#X obj 244 233 < 0.1;
#X obj 240 262 * 0.7;
#X text 1104 95 vision system;
#X obj 706 39 r compass_heading;
#X obj 706 65 abs;
#X floatatom 763 81 5 0 0 0 - - -, f 5;
#X obj 699 87 < 70;
#X floatatom 636 105 5 0 0 0 - - -, f 5;
#X floatatom 762 61 5 0 0 0 - - -, f 5;
#X obj 635 156 *;
#X floatatom 635 178 5 0 0 0 - - -, f 5;
#X obj 635 131 t b f;
#X text 692 116 if holding ball and facing enemy goal \, start kicker.
, f 16;
#X obj 930 219 r range;
#X floatatom 874 250 5 0 0 0 - - -, f 5;
#N canvas 469 162 676 568 differential_drive 0;
#X obj 217 287 vsl 15 100 -1 1 0 0 empty empty empty 0 -9 0 10 -262144
-1 -1 8415 1;
#X obj 293 284 vsl 15 100 -1 1 0 0 empty empty empty 0 -9 0 10 -262144
-1 -1 8415 1;
#X obj 279 -22 vsl 15 100 -1 1 0 0 empty empty empty 0 -9 0 10 -262144
-1 -1 8415 1;
#X obj 235 117 hsl 100 15 -1 1 0 0 empty empty empty -2 -8 0 10 -262144
-1 -1 4950 1;
#X obj 217 237 +;
#X obj 293 237 +;
#X floatatom 275 91 5 0 0 0 - - -, f 5;
#X obj 217 259 clip -1 1;
#X obj 246 207 t b f;
#X obj 306 176 * -1;
#X obj 306 207 t b f;
#X obj 293 259 clip -1 1;
#X floatatom 177 149 5 0 0 0 - - -, f 5;
#X obj 151 451 s left_speed;
#X obj 301 449 s right_speed;
#X obj 116 52 inlet;
#X obj 434 53 inlet;
#X text 71 32 forward/ backwards;
#X text 412 30 left/right;
#X connect 0 0 13 0;
#X connect 1 0 14 0;
#X connect 2 0 6 0;
#X connect 3 0 8 0;
#X connect 3 0 9 0;
#X connect 3 0 12 0;
#X connect 4 0 7 0;
#X connect 5 0 11 0;
#X connect 6 0 4 0;
#X connect 6 0 5 0;
#X connect 7 0 0 0;
#X connect 8 0 4 0;
#X connect 8 1 4 1;
#X connect 9 0 10 0;
#X connect 10 0 5 0;
#X connect 10 1 5 1;
#X connect 11 0 1 0;
#X connect 15 0 2 0;
#X connect 16 0 3 0;
#X restore 258 415 pd differential_drive;
#X floatatom 322 328 5 0 0 0 - - -, f 5;
#X obj 1035 278 expr 1 / $f1;
#X floatatom 982 295 5 0 0 0 - - -, f 5;
#X floatatom 1035 322 5 0 0 0 - - -, f 5;
#X obj 1035 300 * 5;
#X obj 217 343 *;
#X floatatom 235 370 5 0 0 0 - - -, f 5;
#X obj 253 307 t b f;
#X text 70 148 if ball is in front of you \, drive robot forward;
#X obj 872 301 > 10;
#X floatatom 168 265 5 0 0 0 - - -, f 5;
#X floatatom 872 323 5 0 0 0 - - -, f 5;
#X obj 874 269 moses 0;
#X obj 818 285 tgl 15 0 empty empty error 17 7 0 10 -262144 -1 -1 -560
1;
#X connect 0 0 1 0;
#X connect 1 0 2 0;
#X connect 2 0 3 0;
#X connect 4 0 13 0;
#X connect 5 0 16 0;
#X connect 6 0 7 0;
#X connect 6 0 14 0;
#X connect 6 0 15 0;
#X connect 9 0 11 0;
#X connect 9 0 36 0;
#X connect 10 0 37 0;
#X connect 10 0 36 1;
#X connect 13 0 5 0;
#X connect 15 0 8 0;
#X connect 15 0 30 0;
#X connect 16 0 17 0;
#X connect 16 0 20 0;
#X connect 17 0 10 0;
#X connect 18 0 0 0;
#X connect 20 0 21 0;
#X connect 21 0 22 0;
#X connect 22 0 42 0;
#X connect 22 0 47 0;
#X connect 24 0 25 0;
#X connect 24 0 29 0;
#X connect 25 0 26 0;
#X connect 25 0 27 0;
#X connect 27 0 28 0;
#X connect 28 0 32 0;
#X connect 30 0 31 0;
#X connect 31 0 18 0;
#X connect 32 0 30 0;
#X connect 32 1 30 1;
#X connect 34 0 35 0;
#X connect 35 0 49 0;
#X connect 38 0 39 0;
#X connect 38 0 41 0;
#X connect 41 0 40 0;
#X connect 42 0 43 0;
#X connect 43 0 9 0;
#X connect 44 0 42 0;
#X connect 44 1 42 1;
#X connect 46 0 44 0;
#X connect 46 0 48 0;
#X connect 49 0 50 0;
#X connect 49 1 46 0;
