#N canvas 15 183 1905 987 10;
#X floatatom 537 215 5 0 0 0 - - -, f 5;
#X obj 536 252 change;
#X obj 537 286 metro 100;
#X obj 539 315 s kick;
#X obj 311 21 r ball_angle;
#X obj 313 120 hsl 128 15 -180 180 0 0 empty empty empty -2 -8 0 10
-262144 -1 -1 6273 1;
#X obj 523 80 r ball_distance;
#X obj 493 85 vsl 15 128 0 4 0 0 empty empty empty 0 -9 0 10 -262144
-1 -1 444 1;
#X obj 534 166 tgl 15 0 empty empty empty 17 7 0 10 -262144 -1 -1 1
1;
#X obj 333 662 vsl 15 100 -1 1 0 0 empty empty empty 0 -9 0 10 -262144
-1 -1 4920 1;
#X obj 409 659 vsl 15 100 -1 1 0 0 empty empty empty 0 -9 0 10 -262144
-1 -1 4980 1;
#X obj 389 249 vsl 15 100 -1 1 0 0 empty empty empty 0 -9 0 10 -262144
-1 -1 0 1;
#X obj 345 388 hsl 100 15 -1 1 0 0 empty empty empty -2 -8 0 10 -262144
-1 -1 4920 1;
#X obj 333 612 +;
#X obj 409 612 +;
#X floatatom 385 362 5 0 0 0 - - -, f 5;
#X obj 333 634 clip -1 1;
#X obj 362 582 t b f;
#X obj 422 551 * -1;
#X obj 422 582 t b f;
#X obj 409 634 clip -1 1;
#X floatatom 287 420 5 0 0 0 - - -, f 5;
#X obj 267 826 s left_speed;
#X obj 417 824 s right_speed;
#X msg 375 198 0;
#X obj 715 84 r ball_detected;
#X floatatom 311 43 5 0 0 0 - - -, f 5;
#X floatatom 464 32 5 0 0 0 - - -, f 5;
#X obj 527 133 < 0.25;
#X obj 310 140 / 180;
#X obj 310 162 * 0.5;
#X obj 534 186 speedlim 100;
#X connect 0 0 1 0;
#X connect 1 0 2 0;
#X connect 2 0 3 0;
#X connect 4 0 26 0;
#X connect 5 0 29 0;
#X connect 6 0 7 0;
#X connect 6 0 27 0;
#X connect 6 0 28 0;
#X connect 8 0 31 0;
#X connect 9 0 22 0;
#X connect 10 0 23 0;
#X connect 11 0 15 0;
#X connect 12 0 17 0;
#X connect 12 0 18 0;
#X connect 12 0 21 0;
#X connect 13 0 16 0;
#X connect 14 0 20 0;
#X connect 15 0 13 0;
#X connect 15 0 14 0;
#X connect 16 0 9 0;
#X connect 17 0 13 0;
#X connect 17 1 13 1;
#X connect 18 0 19 0;
#X connect 19 0 14 0;
#X connect 19 1 14 1;
#X connect 20 0 10 0;
#X connect 24 0 11 0;
#X connect 26 0 5 0;
#X connect 28 0 8 0;
#X connect 29 0 30 0;
#X connect 30 0 12 0;
#X connect 31 0 0 0;
