#N canvas 102 51 893 540 10;
#X obj 29 39 r ball_angle;
#X obj 682 26 r compass_heading;
#X obj 900 31 r range;
#X floatatom 900 58 5 0 0 0 - - -, f 5;
#X obj 900 77 moses 0;
#X obj 1369 704 tgl 50 0 empty empty Ball_Detected 17 7 0 10 -262144
-1 -1 1 1;
#X obj 946 99 > 14;
#X obj 1174 676 r ball_detected;
#X obj 1339 33 r angle2goal;
#N canvas 0 52 1234 731 motor-serial 0;
#X text 69 49 Tell motor-control what serial device to use:;
#X msg 76 117 devicename /dev/serial/by-id/usb-DSpace__www.dspace.org.nz__DSpace_Robot_2.0_55234313335351A0D161-if00
;
#X obj 76 165 s motor_device;
#X obj 76 71 loadbang;
#X obj 76 93 delay 50;
#X connect 1 0 2 0;
#X connect 3 0 4 0;
#X connect 4 0 1 0;
#X restore 1520 721 pd motor-serial;
#N canvas 102 51 893 540 differential_drive 0;
#X obj 281 525 vsl 15 100 -1 1 0 0 empty empty empty 0 -9 0 10 -262144
-1 -1 4950 1;
#X obj 362 519 vsl 15 100 -1 1 0 0 empty empty empty 0 -9 0 10 -262144
-1 -1 4950 1;
#X obj 345 194 vsl 15 100 -1 1 0 0 empty empty empty 0 -9 0 10 -262144
-1 -1 4950 1;
#X obj 304 352 hsl 100 15 -1 1 0 0 empty empty empty -2 -8 0 10 -262144
-1 -1 4950 1;
#X obj 286 472 +;
#X obj 362 472 +;
#X floatatom 344 326 5 0 0 0 - - -, f 5;
#X obj 286 494 clip -1 1;
#X obj 315 442 t b f;
#X obj 375 411 * -1;
#X obj 375 442 t b f;
#X obj 362 494 clip -1 1;
#X floatatom 246 384 5 0 0 0 - - -, f 5;
#X obj 220 686 s left_speed;
#X obj 370 684 s right_speed;
#X text -7 20 forward/ backwards;
#X text 874 19 left/right;
#X obj 963 117 inlet;
#X text 910 92 steering toggle;
#X obj 379 101 sig2num~;
#X obj 26 46 inlet~;
#X obj 553 150 sig2num~;
#X obj 459 25 hsl 128 15 10 2000 0 0 empty empty empty -2 -8 0 10 -262144
-1 -1 64 1;
#X obj 842 49 inlet~;
#X obj 291 9 loadbang;
#X msg 296 32 20;
#X obj 704 117 *~;
#X obj 205 10 inlet;
#X obj 133 74 *~;
#X obj 204 116 tgl 50 1 steering_toggle_out steering_toggle_in empty
17 7 0 10 -262144 -1 -1 1 1;
#X obj 963 139 s steering_toggle_in;
#X obj 966 186 r steering_toggle_out;
#X obj 142 30 s throttle_toggle_in;
#X obj 119 120 tgl 50 1 throttle_toggle_out throttle_toggle_in empty
17 7 0 10 -262144 -1 -1 1 1;
#X obj 182 55 r throttle_toggle_out;
#X obj 201 228 hsl 60 15 -1 1 0 0 empty steering_drive empty -2 -8
0 10 -262144 -1 -1 2950 1;
#X obj 137 205 vsl 15 60 -1 1 0 0 empty throttle_drive empty 0 -9 0
10 -262144 -1 -1 2950 1;
#X obj 398 197 s throttle_drive;
#X obj 574 278 s steering_drive;
#X floatatom 471 73 5 0 0 0 - - -, f 5;
#X connect 0 0 13 0;
#X connect 1 0 14 0;
#X connect 2 0 6 0;
#X connect 3 0 8 0;
#X connect 3 0 9 0;
#X connect 3 0 12 0;
#X connect 4 0 7 0;
#X connect 5 0 11 0;
#X connect 6 0 4 0;
#X connect 6 0 5 0;
#X connect 7 0 0 0;
#X connect 8 0 4 0;
#X connect 8 1 4 1;
#X connect 9 0 10 0;
#X connect 10 0 5 0;
#X connect 10 1 5 1;
#X connect 11 0 1 0;
#X connect 17 0 30 0;
#X connect 19 0 2 0;
#X connect 19 0 37 0;
#X connect 20 0 28 0;
#X connect 21 0 3 0;
#X connect 21 0 38 0;
#X connect 22 0 19 1;
#X connect 22 0 21 1;
#X connect 22 0 39 0;
#X connect 23 0 26 0;
#X connect 24 0 25 0;
#X connect 25 0 22 0;
#X connect 26 0 21 0;
#X connect 27 0 32 0;
#X connect 28 0 19 0;
#X connect 31 0 26 1;
#X connect 34 0 28 1;
#X coords 0 -1 1 1 170 200 1 100 100;
#X restore 751 667 pd differential_drive;
#X floatatom 703 58 5 0 0 0 - - -, f 5;
#X obj 706 80 hsl 64 15 -180 180 0 0 empty empty empty -2 -8 0 10 -262144
-1 -1 2376 1;
#X obj 1154 816 *;
#X obj 1175 769 t b f;
#X obj 1362 674 r ball_detected;
#X floatatom 1368 760 5 0 0 0 - - -, f 5;
#X obj 1347 835 *;
#X obj 1368 788 t b f;
#N canvas 446 252 549 344 heading 1;
#X obj 28 27 inlet;
#X obj 28 239 outlet;
#X obj 28 82 expr if($f1 > 80 \, $f1 - 80 \, if($f1 < -80 \, $f1 +
80 \, 0));
#X obj 28 108 / 100;
#X text 97 22 veer towards target goal if outside of range -80..80
degrees. (deadzone);
#X obj 28 165 clip -2 2;
#X obj 28 134 * 1.5;
#X connect 0 0 2 0;
#X connect 2 0 3 0;
#X connect 3 0 6 0;
#X connect 5 0 1 0;
#X connect 6 0 5 0;
#X restore 682 109 pd heading;
#X floatatom 726 145 5 0 0 0 - - -, f 5;
#X obj 946 125 tgl 50 0 empty empty way_is_clear 17 7 0 10 -262144
-1 -1 0 1;
#X obj 1177 708 tgl 50 0 empty empty Ball_Detected 17 7 0 10 -262144
-1 -1 1 1;
#X obj 131 149 tgl 50 0 empty empty Ball_nearish 0 -5 0 10 -262144
-1 -1 0 1;
#X obj 142 112 < 1;
#N canvas 102 242 584 354 face-ball 1;
#X obj 38 162 clip -1 1;
#X obj 38 57 inlet;
#X obj 38 186 outlet;
#X obj 38 90 expr if($f1 > 20 \, $f1 - 20 \, if($f1 < -20 \, $f1 +
20 \, 0));
#X obj 38 117 / 160;
#X obj 38 140 * 2;
#X connect 0 0 2 0;
#X connect 1 0 3 0;
#X connect 3 0 4 0;
#X connect 4 0 5 0;
#X connect 5 0 0 0;
#X restore 29 210 pd face-ball;
#X floatatom 39 68 5 0 0 0 - - -, f 5;
#X obj 42 90 hsl 64 15 -180 180 0 0 empty empty empty -2 -8 0 10 -262144
-1 -1 4146 1;
#X obj 45 265 t b f;
#X obj 45 292 *;
#X obj 1155 842 spigot;
#X floatatom 1339 59 5 0 0 0 - - -, f 5;
#X obj 1339 78 abs;
#X obj 1336 123 tgl 50 0 empty empty Facing_Goal. 17 7 0 10 -262144
-1 -1 1 1;
#X obj 1339 100 < 15;
#N canvas 426 323 594 357 diy_pwm 0;
#X obj 142 119 phasor~ 0.85;
#X obj 142 141 expr~ $v1 < 0.1;
#X obj 218 193 snapshot~;
#X obj 338 123 loadbang;
#X obj 281 161 metro 100;
#X obj 262 130 tgl 15 0 empty empty empty 17 7 0 10 -262144 -1 -1 1
1;
#X obj 203 264 outlet;
#X floatatom 218 215 5 0 0 0 - - -, f 5;
#X connect 0 0 1 0;
#X connect 1 0 2 0;
#X connect 2 0 7 0;
#X connect 3 0 5 0;
#X connect 4 0 2 0;
#X connect 5 0 4 0;
#X connect 7 0 6 0;
#X restore 1431 136 pd diy_pwm;
#X floatatom 1415 167 5 0 0 0 - - -, f 5;
#X obj 1306 221 *;
#X obj 1263 74 / 27;
#X floatatom 1263 100 5 0 0 0 - - -, f 5;
#X obj 1323 191 t b f;
#X obj 1233 130 spigot;
#X obj 1197 172 moses 0;
#X obj 779 139 tgl 50 1 empty empty heading_enable 17 7 0 10 -262144
-1 -1 1 1;
#X obj 729 179 sig~;
#X obj 731 223 throw~ steering;
#X obj 930 532 catch~ steering;
#X obj 731 203 *~;
#N canvas 335 150 1055 727 sig2num 0;
#X obj 86 74 snapshot~;
#X obj 82 42 inlet~;
#X floatatom 122 123 5 0 0 0 - - -, f 5;
#X obj 212 64 metro 250;
#X obj 198 15 loadbang;
#X obj 166 122 tgl 15 0 empty empty empty 17 7 0 10 -262144 -1 -1 1
1;
#X connect 0 0 2 0;
#X connect 1 0 0 0;
#X connect 3 0 0 0;
#X connect 4 0 5 0;
#X connect 5 0 3 0;
#X coords 0 -1 1 1 85 60 1 100 100;
#X restore 1502 764 pd sig2num;
#X obj 495 335 s steering_toggle;
#X obj 949 556 r steering_toggle;
#X obj 975 582 tgl 15 0 empty empty empty 17 7 0 10 -262144 -1 -1 0
1;
#X obj 1068 30 r reflectance;
#X floatatom 1068 52 5 0 0 0 - - -, f 5;
#X obj 1068 103 tgl 50 0 empty empty inside_goal 17 7 0 10 -262144
-1 -1 1 1;
#X text 37 764 Dealing with reflections off the goal will be especially
tricky for the goalie. It will affect the apaprent ball distance as
well as the angle. Post note: Solved by automatic gain control to filter
out reflections., f 25;
#X obj 45 314 sig~;
#X obj 45 336 *~;
#X obj 107 285 tgl 50 1 empty empty ball_rotate 17 7 0 10 -262144 -1
-1 1 1;
#X obj 44 361 throw~ steering;
#X text 32 122 Only face ball when ball is near;
#X obj 280 29 r ball_distance;
#X floatatom 280 54 8 0 0 0 - - -, f 8;
#X obj 439 137 tgl 50 0 empty empty Ball_very_near 0 -5 0 10 -262144
-1 -1 0 1;
#N canvas 102 51 893 540 save_goal 0;
#X obj 128 62 inlet;
#X obj 276 793 outlet;
#X obj 195 220 bng 15 250 50 0 empty empty empty 17 7 0 10 -262144
-1 -1;
#X obj 263 288 bng 15 250 50 0 empty empty empty 17 7 0 10 -262144
-1 -1;
#X msg 272 738 1;
#X msg 328 740 0;
#X msg 383 744 -1;
#X msg 435 744 0;
#X obj 485 825 outlet;
#X obj 236 43 bng 15 250 50 0 empty empty empty 17 7 0 10 -262144 -1
-1;
#X obj 134 138 spigot;
#X obj 259 92 tgl 15 0 empty empty empty 17 7 0 10 -262144 -1 -1 0
1;
#X msg 245 66 0;
#X obj 291 40 bng 15 250 50 0 empty empty empty 17 7 0 10 -262144 -1
-1;
#X msg 291 66 1;
#X text 172 19 drive towards the ball \, then move back.;
#X obj 388 43 loadbang;
#X msg 339 68 1;
#X msg 570 738 1;
#X msg 130 793 0;
#X text 189 240 drive forwards;
#X text 322 306 stop;
#X text 590 491 stop;
#X text 425 458 drive backwards;
#X msg 230 741 0;
#X text 542 824 not running;
#X obj 95 72 bng 15 250 50 0 empty empty empty 17 7 0 10 -262144 -1
-1;
#X obj 340 357 bng 15 250 50 0 empty empty empty 17 7 0 10 -262144
-1 -1;
#X obj 455 510 bng 15 250 50 0 empty empty empty 17 7 0 10 -262144
-1 -1;
#X obj 597 546 bng 15 250 50 0 empty empty empty 17 7 0 10 -262144
-1 -1;
#X obj 324 331 delay 1500;
#X obj 575 520 delay 1500;
#X msg 204 783 1;
#X obj 65 214 delay 500;
#X obj 583 267 inlet;
#X msg 583 289 stop;
#X obj 417 366 timer;
#X floatatom 400 405 5 0 0 0 - - -, f 5;
#X obj 599 335 t b b;
#X text 624 201 interupting the sequence \, expecting a bang. Now using
range detection \, issues occured when not knowing the period already
driven backwards., f 19;
#X obj 237 258 delay 1500;
#X obj 443 486 delay 1500;
#X connect 0 0 10 0;
#X connect 0 0 26 0;
#X connect 2 0 4 0;
#X connect 2 0 36 0;
#X connect 2 0 40 0;
#X connect 3 0 5 0;
#X connect 3 0 30 0;
#X connect 3 0 36 1;
#X connect 4 0 1 0;
#X connect 5 0 1 0;
#X connect 6 0 1 0;
#X connect 7 0 1 0;
#X connect 9 0 12 0;
#X connect 10 0 9 0;
#X connect 10 0 24 0;
#X connect 10 0 32 0;
#X connect 10 0 33 0;
#X connect 11 0 10 1;
#X connect 12 0 11 0;
#X connect 13 0 14 0;
#X connect 14 0 11 0;
#X connect 16 0 17 0;
#X connect 17 0 11 0;
#X connect 18 0 8 0;
#X connect 19 0 8 0;
#X connect 24 0 1 0;
#X connect 26 0 10 0;
#X connect 30 0 6 0;
#X connect 30 0 27 0;
#X connect 30 0 41 0;
#X connect 31 0 18 0;
#X connect 31 0 29 0;
#X connect 31 0 13 0;
#X connect 32 0 8 0;
#X connect 33 0 2 0;
#X connect 33 0 19 0;
#X connect 34 0 35 0;
#X connect 34 0 36 1;
#X connect 35 0 30 0;
#X connect 35 0 31 0;
#X connect 35 0 40 0;
#X connect 35 0 41 0;
#X connect 36 0 37 0;
#X connect 36 0 41 1;
#X connect 40 0 3 0;
#X connect 41 0 7 0;
#X connect 41 0 28 0;
#X connect 41 0 31 0;
#X restore 369 241 pd save_goal;
#X obj 501 270 tgl 50 1 empty empty steering_toggle 17 7 0 10 -262144
-1 -1 0 1;
#X floatatom 333 268 5 0 0 0 - - -, f 5;
#X obj 365 202 metro 4000;
#X obj 365 222 bng 15 250 50 0 empty empty empty 17 7 0 10 -262144
-1 -1;
#X obj 333 287 sig~;
#X obj 333 309 *~;
#X obj 378 266 tgl 50 1 empty empty throttle_toggle 17 7 0 10 -262144
-1 -1 1 1;
#X obj 316 360 throw~ throttle;
#X obj 1201 573 hsl 128 15 -1 1 0 0 empty empty empty -2 -8 0 10 -262144
-1 -1 0 1;
#X obj 1381 579 hsl 128 15 -1 1 0 0 empty empty empty -2 -8 0 10 -262144
-1 -1 0 1;
#X obj 1452 441 bng 15 250 50 0 empty empty empty 17 7 0 10 -262144
-1 -1;
#X msg 1452 461 0;
#X obj 1378 599 sig~;
#X obj 1198 593 sig~;
#X floatatom 1149 57 5 0 0 0 - - -, f 5;
#X obj 1068 71 > 800;
#X obj 280 73 moses 0.01;
#X obj 798 338 catch~ throttle;
#X obj 725 581 tgl 15 0 empty empty empty 17 7 0 10 -262144 -1 -1 1
1;
#X obj 697 532 r throttle_toggle;
#X obj 721 631 *~;
#X obj 466 205 bng 15 250 50 0 empty empty empty 17 7 0 10 -262144
-1 -1;
#X msg 980 256 -1;
#X msg 913 255 0;
#X obj 929 197 moses 1;
#X text 994 291 preventing robot from driving into goal., f 11;
#X obj 931 373 clip~ 0 1;
#X msg 314 230 0;
#X obj 361 328 s throttle_toggle;
#X obj 929 612 *~;
#X msg 1095 267 0;
#X obj 1111 209 moses 1;
#X text 1188 285 preventing robot from driving outside the goal area.
, f 11;
#X obj 950 433 clip~ -1 1;
#X msg 1162 268 1;
#X obj 432 102 < 0.4;
#X connect 0 0 26 0;
#X connect 0 0 25 0;
#X connect 1 0 11 0;
#X connect 1 0 19 0;
#X connect 2 0 3 0;
#X connect 3 0 4 0;
#X connect 4 1 6 0;
#X connect 6 0 21 0;
#X connect 7 0 14 0;
#X connect 7 0 22 0;
#X connect 8 0 31 0;
#X connect 8 0 38 0;
#X connect 11 0 12 0;
#X connect 13 0 30 0;
#X connect 14 0 13 0;
#X connect 14 1 13 1;
#X connect 15 0 16 0;
#X connect 15 0 5 0;
#X connect 16 0 18 0;
#X connect 18 0 17 0;
#X connect 18 1 17 1;
#X connect 19 0 20 0;
#X connect 20 0 44 0;
#X connect 21 0 89 0;
#X connect 23 0 28 0;
#X connect 24 0 23 0;
#X connect 25 0 29 0;
#X connect 26 0 27 0;
#X connect 28 0 29 0;
#X connect 28 1 29 1;
#X connect 29 0 56 0;
#X connect 31 0 32 0;
#X connect 32 0 34 0;
#X connect 33 0 41 1;
#X connect 33 0 42 0;
#X connect 34 0 33 0;
#X connect 35 0 36 0;
#X connect 36 0 40 0;
#X connect 38 0 39 0;
#X connect 39 0 41 0;
#X connect 41 0 37 0;
#X connect 42 0 37 0;
#X connect 43 0 47 1;
#X connect 44 0 47 0;
#X connect 46 0 94 0;
#X connect 47 0 45 0;
#X connect 50 0 51 0;
#X connect 50 0 94 1;
#X connect 52 0 53 0;
#X connect 53 0 80 0;
#X connect 54 0 96 0;
#X connect 56 0 57 0;
#X connect 57 0 59 0;
#X connect 58 0 57 1;
#X connect 61 0 62 0;
#X connect 62 0 81 0;
#X connect 63 0 67 0;
#X connect 64 0 66 0;
#X connect 64 1 65 0;
#X connect 65 0 49 0;
#X connect 66 0 69 0;
#X connect 67 0 68 0;
#X connect 68 0 64 0;
#X connect 69 0 70 0;
#X connect 70 0 72 0;
#X connect 71 0 70 1;
#X connect 71 0 93 0;
#X connect 73 0 78 0;
#X connect 74 0 77 0;
#X connect 75 0 76 0;
#X connect 76 0 73 0;
#X connect 76 0 74 0;
#X connect 79 0 80 1;
#X connect 80 0 54 0;
#X connect 81 1 24 0;
#X connect 81 1 100 0;
#X connect 82 0 91 0;
#X connect 83 0 85 0;
#X connect 84 0 83 0;
#X connect 85 0 10 0;
#X connect 86 0 64 1;
#X connect 87 0 91 1;
#X connect 88 0 91 1;
#X connect 89 0 88 0;
#X connect 89 1 87 0;
#X connect 91 0 98 0;
#X connect 92 0 66 0;
#X connect 94 0 10 2;
#X connect 95 0 98 2;
#X connect 96 0 95 0;
#X connect 96 1 99 0;
#X connect 98 0 85 1;
#X connect 99 0 98 2;
#X connect 100 0 63 0;
