#N canvas 15 51 1265 718 10;
#X obj 1485 583 r compass_heading;
#X obj 709 -314 r range;
#X floatatom 709 -287 5 0 0 0 - - -, f 5;
#X obj 709 -268 moses 0;
#X obj 1369 397 tgl 50 0 empty empty Ball_Detected 17 7 0 10 -262144
-1 -1 1 1;
#X obj 1342 -274 r ball_detected;
#X obj 1444 832 r angle2goal;
#N canvas 99 51 893 540 motor-serial 0;
#X text 69 49 Tell motor-control what serial device to use:;
#X obj 76 244 s motor_device;
#X obj 12 142 loadbang;
#X obj 12 164 delay 50;
#X obj 103 104 bng 50 250 50 0 empty empty restart 17 7 0 10 -262144
-1 -1;
#X obj 102 74 r dspace_restart;
#X msg 73 192 devicename /dev/serial/by-id/usb-DSpace__www.dspace.org.nz__DSpace_Robot_2.0_55234313335351A0D161-if00
, f 111;
#X obj 165 131 bng 15 250 50 0 empty empty disconnect 17 7 0 10 -262144
-1 -1;
#X msg 165 151 close;
#X connect 2 0 3 0;
#X connect 3 0 6 0;
#X connect 4 0 6 0;
#X connect 5 0 4 0;
#X connect 6 0 1 0;
#X connect 7 0 8 0;
#X connect 8 0 1 0;
#X coords 0 -1 1 1 85 60 1 100 100;
#X restore 1520 414 pd motor-serial;
#N canvas 99 51 1379 833 differential_drive 0;
#X obj 281 525 vsl 15 100 -1 1 0 0 empty empty empty 0 -9 0 10 -262144
-1 -1 4950 1;
#X obj 362 519 vsl 15 100 -1 1 0 0 empty empty empty 0 -9 0 10 -262144
-1 -1 4950 1;
#X obj 345 194 vsl 15 100 -1 1 0 0 empty empty empty 0 -9 0 10 -262144
-1 -1 4950 1;
#X obj 304 352 hsl 100 15 -1 1 0 0 empty empty empty -2 -8 0 10 -262144
-1 -1 4950 1;
#X obj 286 472 +;
#X obj 362 472 +;
#X floatatom 344 326 5 0 0 0 - - -, f 5;
#X obj 286 494 clip -1 1;
#X obj 315 442 t b f;
#X obj 375 411 * -1;
#X obj 375 442 t b f;
#X obj 362 494 clip -1 1;
#X floatatom 246 384 5 0 0 0 - - -, f 5;
#X obj 220 686 s left_speed;
#X obj 370 684 s right_speed;
#X text -7 20 forward/ backwards;
#X text 874 19 left/right;
#X obj 963 117 inlet;
#X text 910 92 steering toggle;
#X obj 379 101 sig2num~;
#X obj 26 46 inlet~;
#X obj 553 150 sig2num~;
#X obj 459 25 hsl 128 15 10 2000 0 0 empty empty empty -2 -8 0 10 -262144
-1 -1 64 1;
#X obj 842 49 inlet~;
#X obj 291 9 loadbang;
#X msg 296 32 20;
#X obj 704 117 *~;
#X obj 205 10 inlet;
#X obj 133 74 *~;
#X obj 204 116 tgl 50 1 steering_toggle_out steering_toggle_in empty
17 7 0 10 -262144 -1 -1 1 1;
#X obj 963 139 s steering_toggle_in;
#X obj 966 186 r steering_toggle_out;
#X obj 142 30 s throttle_toggle_in;
#X obj 119 120 tgl 50 1 throttle_toggle_out throttle_toggle_in empty
17 7 0 10 -262144 -1 -1 1 1;
#X obj 182 55 r throttle_toggle_out;
#X obj 201 228 hsl 60 15 -1 1 0 0 empty steering_drive empty -2 -8
0 10 -262144 -1 -1 2950 1;
#X obj 137 205 vsl 15 60 -1 1 0 0 empty throttle_drive empty 0 -9 0
10 -262144 -1 -1 2950 1;
#X obj 398 197 s throttle_drive;
#X obj 574 278 s steering_drive;
#X floatatom 471 73 5 0 0 0 - - -, f 5;
#X text 0 94 TODO: enable these at startup:;
#X connect 0 0 13 0;
#X connect 1 0 14 0;
#X connect 2 0 6 0;
#X connect 3 0 8 0;
#X connect 3 0 9 0;
#X connect 3 0 12 0;
#X connect 4 0 7 0;
#X connect 5 0 11 0;
#X connect 6 0 4 0;
#X connect 6 0 5 0;
#X connect 7 0 0 0;
#X connect 8 0 4 0;
#X connect 8 1 4 1;
#X connect 9 0 10 0;
#X connect 10 0 5 0;
#X connect 10 1 5 1;
#X connect 11 0 1 0;
#X connect 17 0 30 0;
#X connect 19 0 2 0;
#X connect 19 0 37 0;
#X connect 20 0 28 0;
#X connect 21 0 3 0;
#X connect 21 0 38 0;
#X connect 22 0 19 1;
#X connect 22 0 21 1;
#X connect 22 0 39 0;
#X connect 23 0 26 0;
#X connect 24 0 25 0;
#X connect 25 0 22 0;
#X connect 26 0 21 0;
#X connect 27 0 32 0;
#X connect 28 0 19 0;
#X connect 31 0 26 1;
#X connect 34 0 28 1;
#X coords 0 -1 1 1 170 200 1 100 100;
#X restore 711 -66 pd differential_drive;
#X floatatom 1506 615 5 0 0 0 - - -, f 5;
#X obj 1509 637 hsl 64 15 -180 180 0 0 empty empty empty -2 -8 0 10
-262144 -1 -1 3488 1;
#X obj 1362 367 r ball_detected;
#X floatatom 1368 453 5 0 0 0 - - -, f 5;
#X obj 1347 528 *;
#X obj 1368 481 t b f;
#N canvas 430 240 549 344 heading 0;
#X obj 28 27 inlet;
#X obj 28 239 outlet;
#X obj 28 82 expr if($f1 > 80 \, $f1 - 80 \, if($f1 < -80 \, $f1 +
80 \, 0));
#X obj 28 108 / 100;
#X text 97 22 veer towards target goal if outside of range -80..80
degrees. (deadzone);
#X obj 28 165 clip -2 2;
#X obj 28 134 * 1.5;
#X connect 0 0 2 0;
#X connect 2 0 3 0;
#X connect 3 0 6 0;
#X connect 5 0 1 0;
#X connect 6 0 5 0;
#X restore 1485 666 pd heading;
#X floatatom 1529 702 5 0 0 0 - - -, f 5;
#X obj 755 -217 tgl 50 0 empty empty way_is_clear 17 7 0 10 -262144
-1 -1 1 1;
#X obj 1345 -242 tgl 50 0 empty empty Ball_Detected 17 7 0 10 -262144
-1 -1 1 1;
#X floatatom 1444 858 5 0 0 0 - - -, f 5;
#X obj 1444 877 abs;
#X obj 1441 922 tgl 50 0 empty empty Facing_Goal. 17 7 0 10 -262144
-1 -1 0 1;
#X obj 1444 899 < 15;
#N canvas 426 323 594 357 diy_pwm 0;
#X obj 142 119 phasor~ 0.85;
#X obj 142 141 expr~ $v1 < 0.1;
#X obj 218 193 snapshot~;
#X obj 338 123 loadbang;
#X obj 281 161 metro 100;
#X obj 262 130 tgl 15 0 empty empty empty 17 7 0 10 -262144 -1 -1 1
1;
#X obj 203 264 outlet;
#X floatatom 218 215 5 0 0 0 - - -, f 5;
#X connect 0 0 1 0;
#X connect 1 0 2 0;
#X connect 2 0 7 0;
#X connect 3 0 5 0;
#X connect 4 0 2 0;
#X connect 5 0 4 0;
#X connect 7 0 6 0;
#X restore 1536 935 pd diy_pwm;
#X floatatom 1520 966 5 0 0 0 - - -, f 5;
#X obj 1411 1020 *;
#X obj 1368 873 / 27;
#X floatatom 1368 899 5 0 0 0 - - -, f 5;
#X obj 1428 990 t b f;
#X obj 1338 929 spigot;
#X obj 1302 971 moses 0;
#X obj 1582 696 tgl 50 1 empty empty heading_enable 17 7 0 10 -262144
-1 -1 1 1;
#X obj 1532 736 sig~;
#X obj 1535 805 throw~ steering;
#X obj 1534 760 *~;
#N canvas 335 150 1055 727 sig2num 0;
#X obj 86 74 snapshot~;
#X obj 82 42 inlet~;
#X floatatom 122 123 5 0 0 0 - - -, f 5;
#X obj 212 64 metro 250;
#X obj 198 15 loadbang;
#X obj 166 122 tgl 15 0 empty empty empty 17 7 0 10 -262144 -1 -1 1
1;
#X connect 0 0 2 0;
#X connect 1 0 0 0;
#X connect 3 0 0 0;
#X connect 4 0 5 0;
#X connect 5 0 3 0;
#X coords 0 -1 1 1 85 60 1 100 100;
#X restore 884 215 pd sig2num;
#X text 37 457 Dealing with reflections off the goal will be especially
tricky for the goalie. It will affect the apaprent ball distance as
well as the angle. Post note: Solved by automatic gain control to filter
out reflections., f 25;
#X obj 1201 266 hsl 128 15 -1 1 0 0 empty empty empty -2 -8 0 10 -262144
-1 -1 0 1;
#X obj 1381 272 hsl 128 15 -1 1 0 0 empty empty empty -2 -8 0 10 -262144
-1 -1 0 1;
#X obj 1452 134 bng 15 250 50 0 empty empty empty 17 7 0 10 -262144
-1 -1;
#X msg 1452 154 0;
#X obj 1378 292 sig~;
#X obj 1198 286 sig~;
#X msg 780 -128 -1;
#X msg 742 -130 0;
#X obj 755 -159 moses 1;
#X text 1283 -10 preventing robot from driving into goal., f 11;
#X obj 745 -99 clip~ 0 1;
#X text 1063 359 preventing robot from driving outside the goal area.
, f 11;
#X text 1106 80 Oh \, haha - that 2nd output disables steering while
save_goal routine is running! Need to implement separate modes for
this to work properly.;
#X text 315 434 TODO: auto-kicker \, for when saving goal.;
#X obj 819 -103 catch~ steering;
#X obj 626 -128 catch~ throttle;
#N canvas 107 178 1101 625 rotate2ball 0;
#N canvas 266 307 584 354 face-ball 0;
#X obj 38 162 clip -1 1;
#X obj 38 57 inlet;
#X obj 38 186 outlet;
#X obj 38 90 expr if($f1 > 20 \, $f1 - 20 \, if($f1 < -20 \, $f1 +
20 \, 0));
#X obj 38 117 / 160;
#X obj 38 140 * 2;
#X connect 0 0 2 0;
#X connect 1 0 3 0;
#X connect 3 0 4 0;
#X connect 4 0 5 0;
#X connect 5 0 0 0;
#X restore 67 343 pd face-ball;
#X obj 68 319 r ball_angle;
#X obj 68 369 sig~;
#X obj 68 391 *~;
#X obj 68 424 throw~ steering;
#X obj 768 311 r compass_heading;
#X floatatom 789 343 5 0 0 0 - - -, f 5;
#X obj 792 365 hsl 64 15 -180 180 0 0 empty empty empty -2 -8 0 10
-262144 -1 -1 3488 1;
#N canvas 427 238 549 344 heading 0;
#X obj 28 27 inlet;
#X obj 28 239 outlet;
#X obj 28 82 expr if($f1 > 80 \, $f1 - 80 \, if($f1 < -80 \, $f1 +
80 \, 0));
#X obj 28 108 / 100;
#X text 97 22 veer towards target goal if outside of range -80..80
degrees. (deadzone);
#X obj 28 165 clip -2 2;
#X obj 28 134 * 1.5;
#X connect 0 0 2 0;
#X connect 2 0 3 0;
#X connect 3 0 6 0;
#X connect 5 0 1 0;
#X connect 6 0 5 0;
#X restore 768 394 pd heading;
#X floatatom 812 430 5 0 0 0 - - -, f 5;
#X obj 865 424 tgl 50 1 empty empty heading_enable 17 7 0 10 -262144
-1 -1 1 1;
#X obj 815 464 sig~;
#X obj 818 541 throw~ steering;
#X obj 817 488 *~;
#X text 877 372 TODO: reimplement this;
#X obj 417 24 r~ intercept_ball_mode;
#X obj 163 26 r inside_goal;
#X obj 122 118 tgl 30 0 empty empty empty 17 7 0 10 -262144 -1 -1 0
1;
#X obj 163 48 sig~;
#X obj 276 22 r~ ball_distance~;
#X obj 274 79 *~;
#X obj 274 149 lop~ 1;
#X obj 267 173 expr~ $v1 >= 0.5;
#X obj 59 81 sig2num~;
#X obj 102 370 r~ rotate2ball_mode;
#X obj 417 46 expr~ $v1 * -1 + 1;
#X obj 262 198 s~ rotate2ball_mode;
#X obj 274 101 *~;
#X obj 604 40 r homed;
#X obj 274 123 *~;
#N canvas 335 150 1055 727 sig2num 0;
#X obj 86 74 snapshot~;
#X obj 82 42 inlet~;
#X floatatom 122 123 5 0 0 0 - - -, f 5;
#X obj 212 64 metro 250;
#X obj 198 15 loadbang;
#X obj 166 122 tgl 15 0 empty empty empty 17 7 0 10 -262144 -1 -1 1
1;
#X connect 0 0 2 0;
#X connect 1 0 0 0;
#X connect 3 0 0 0;
#X connect 4 0 5 0;
#X connect 5 0 3 0;
#X coords 0 -1 1 1 85 60 1 100 100;
#X restore 488 114 pd sig2num;
#X floatatom 604 62 5 0 0 0 - - -, f 5;
#N canvas 335 150 1055 727 sig2num 0;
#X obj 86 74 snapshot~;
#X obj 82 42 inlet~;
#X floatatom 122 123 5 0 0 0 - - -, f 5;
#X obj 212 64 metro 250;
#X obj 198 15 loadbang;
#X obj 166 122 tgl 15 0 empty empty empty 17 7 0 10 -262144 -1 -1 1
1;
#X connect 0 0 2 0;
#X connect 1 0 0 0;
#X connect 3 0 0 0;
#X connect 4 0 5 0;
#X connect 5 0 3 0;
#X coords 0 -1 1 1 85 60 1 100 100;
#X restore 31 445 pd sig2num;
#X obj 275 48 expr~ $v1 < 1.2;
#X obj 198 199 sig2num~;
#X obj 198 221 moses 1;
#X msg 311 302 1;
#X obj 311 324 s homed;
#X obj 299 275 delay 10000;
#X msg 299 255 stop;
#X obj 196 299 spigot;
#X obj 263 313 bng 15 250 50 0 empty empty empty 17 7 0 10 -262144
-1 -1;
#X msg 207 259 1;
#X msg 246 259 0;
#X obj 196 321 t b b;
#X obj 368 304 bng 15 250 50 0 empty empty empty 17 7 0 10 -262144
-1 -1;
#X obj 221 281 tgl 15 0 empty empty empty 17 7 0 10 -262144 -1 -1 0
1;
#X msg 105 196 1;
#X msg 148 194 0;
#X floatatom 151 231 5 0 0 0 - - -, f 5;
#X connect 0 0 2 0;
#X connect 1 0 0 0;
#X connect 2 0 3 0;
#X connect 3 0 4 0;
#X connect 3 0 32 0;
#X connect 5 0 6 0;
#X connect 5 0 8 0;
#X connect 6 0 7 0;
#X connect 8 0 9 0;
#X connect 9 0 11 0;
#X connect 10 0 13 1;
#X connect 11 0 13 0;
#X connect 15 0 25 0;
#X connect 16 0 18 0;
#X connect 18 0 20 1;
#X connect 19 0 33 0;
#X connect 20 0 27 0;
#X connect 21 0 22 0;
#X connect 22 0 23 0;
#X connect 22 0 26 0;
#X connect 23 0 17 0;
#X connect 24 0 3 1;
#X connect 25 0 27 1;
#X connect 27 0 29 0;
#X connect 28 0 29 1;
#X connect 28 0 31 0;
#X connect 29 0 21 0;
#X connect 33 0 20 0;
#X connect 34 0 35 0;
#X connect 34 0 49 0;
#X connect 35 0 40 0;
#X connect 35 1 39 0;
#X connect 36 0 37 0;
#X connect 38 0 36 0;
#X connect 38 0 42 0;
#X connect 38 0 45 0;
#X connect 39 0 38 0;
#X connect 40 0 44 0;
#X connect 41 0 38 0;
#X connect 42 0 46 0;
#X connect 43 0 46 0;
#X connect 44 0 43 0;
#X connect 44 1 41 0;
#X connect 46 0 40 1;
#X connect 47 0 35 0;
#X connect 48 0 35 0;
#X coords 0 -1 1 1 85 60 1 100 100;
#X restore 58 -221 pd rotate2ball;
#X obj 1177 575 r ball_angle;
#X obj 1279 685 tgl 50 0 empty empty Ball_nearish 0 -5 0 10 -262144
-1 -1 1 1;
#X obj 1290 648 < 1;
#N canvas 266 307 584 354 face-ball 0;
#X obj 38 162 clip -1 1;
#X obj 38 57 inlet;
#X obj 38 186 outlet;
#X obj 38 90 expr if($f1 > 20 \, $f1 - 20 \, if($f1 < -20 \, $f1 +
20 \, 0));
#X obj 38 117 / 160;
#X obj 38 140 * 2;
#X connect 0 0 2 0;
#X connect 1 0 3 0;
#X connect 3 0 4 0;
#X connect 4 0 5 0;
#X connect 5 0 0 0;
#X restore 1177 746 pd face-ball;
#X floatatom 1187 604 5 0 0 0 - - -, f 5;
#X obj 1190 626 hsl 64 15 -180 180 0 0 empty empty empty -2 -8 0 10
-262144 -1 -1 1142 1;
#X obj 1193 801 t b f;
#X obj 1193 828 *;
#X obj 1193 850 sig~;
#X obj 1193 872 *~;
#X obj 1255 821 tgl 50 1 empty empty ball_rotate 17 7 0 10 -262144
-1 -1 1 1;
#X obj 1192 897 throw~ steering;
#X text 1180 658 Only face ball when ball is near;
#X obj 1321 556 r ball_distance;
#X floatatom 1321 581 8 0 0 0 - - -, f 8;
#X obj 1321 600 moses 0.01;
#N canvas 23 280 1265 718 intercept_ball 0;
#N canvas 99 51 1009 540 save_goal 0;
#X obj 128 62 inlet;
#X obj 181 223 bng 15 250 50 0 empty empty empty 17 7 0 10 -262144
-1 -1;
#X obj 286 284 bng 15 250 50 0 empty empty empty 17 7 0 10 -262144
-1 -1;
#X msg 257 559 1;
#X msg 313 561 0;
#X msg 368 565 -1;
#X msg 420 565 0;
#X obj 456 671 outlet;
#X obj 236 43 bng 15 250 50 0 empty empty empty 17 7 0 10 -262144 -1
-1;
#X obj 134 138 spigot;
#X obj 259 92 tgl 15 0 empty empty empty 17 7 0 10 -262144 -1 -1 1
1;
#X msg 245 66 0;
#X obj 291 40 bng 15 250 50 0 empty empty empty 17 7 0 10 -262144 -1
-1;
#X msg 291 66 1;
#X text 172 19 drive towards the ball \, then move back.;
#X obj 388 43 loadbang;
#X msg 339 68 1;
#X msg 457 642 1;
#X msg 65 641 0;
#X text 214 221 drive forwards;
#X text 317 283 stop;
#X text 503 445 stop;
#X text 382 367 drive backwards;
#X msg 215 562 0;
#X text 507 671 not running;
#X obj 95 72 bng 15 250 50 0 empty empty empty 17 7 0 10 -262144 -1
-1;
#X obj 362 366 bng 15 250 50 0 empty empty empty 17 7 0 10 -262144
-1 -1;
#X obj 483 446 bng 15 250 50 0 empty empty empty 17 7 0 10 -262144
-1 -1;
#X obj 756 496 bng 15 250 50 0 empty empty empty 17 7 0 10 -262144
-1 -1;
#X obj 297 311 delay 1500;
#X obj 480 469 delay 1500;
#X msg 134 629 1;
#X obj 65 214 delay 500;
#X obj 575 261 inlet;
#X msg 575 283 stop;
#X obj 456 233 timer;
#X floatatom 470 260 5 0 0 0 - - -, f 5;
#X obj 599 335 t b b;
#X text 616 195 interupting the sequence \, expecting a bang. Now using
range detection \, issues occured when not knowing the period already
driven backwards., f 19;
#X obj 238 246 delay 1500;
#X obj 361 390 delay 1500;
#X text 330 624 speed;
#X obj 749 654 outlet;
#X text 799 660 steering;
#X obj 749 399 r angle2goal;
#X floatatom 1339 59 5 0 0 0 - - -, f 5;
#X obj 1339 78 abs;
#X obj 1336 123 tgl 50 0 empty empty Facing_Goal. 17 7 0 10 -262144
-1 -1 0 1;
#X obj 1339 100 < 15;
#X floatatom 749 423 5 0 0 0 - - -, f 5;
#X obj 749 572 *;
#X msg 756 523 0;
#X text 750 333 Steer using vision while driving backwards, f 13;
#X floatatom 767 617 5 0 0 0 - - -, f 5;
#X obj 281 623 outlet;
#X msg 790 523 1;
#X floatatom 232 624 5 0 0 0 - - -, f 5;
#X text 778 492 Restore control;
#X obj 767 546 tgl 15 0 empty empty empty 17 7 0 10 -262144 -1 -1 0
1;
#X obj 749 445 * 0.01;
#X obj 281 601 * 0.3;
#N canvas 102 51 895 549 kick? 0;
#X obj 87 154 change;
#X obj 48 263 s kick;
#X obj 87 132 snapshot~;
#X obj 212 83 tgl 15 0 empty empty empty 17 7 0 10 -262144 -1 -1 1
1;
#X obj 212 57 loadbang;
#X text 88 17 toggles kicker;
#X obj 212 107 metro 10;
#X obj 88 44 inlet~;
#X floatatom 154 153 5 0 0 0 - - -, f 5;
#X floatatom 147 179 5 0 0 0 - - -, f 5;
#X obj 88 77 lop~ 1;
#X obj 87 105 expr~ $v1 >= 0.5;
#X obj 48 207 tgl 15 0 empty empty empty 17 7 0 10 -262144 -1 -1 1
1;
#X obj 48 185 metro 170;
#X obj 48 243 spigot;
#X obj 87 208 tgl 15 0 empty empty empty 17 7 0 10 -262144 -1 -1 0
1;
#X obj 14 140 loadbang;
#X obj 48 164 tgl 15 0 empty empty empty 17 7 0 10 -262144 -1 -1 1
1;
#X connect 0 0 9 0;
#X connect 0 0 15 0;
#X connect 2 0 0 0;
#X connect 2 0 8 0;
#X connect 3 0 6 0;
#X connect 4 0 3 0;
#X connect 6 0 2 0;
#X connect 7 0 10 0;
#X connect 10 0 11 0;
#X connect 11 0 2 0;
#X connect 12 0 14 0;
#X connect 13 0 12 0;
#X connect 14 0 1 0;
#X connect 15 0 14 1;
#X connect 16 0 17 0;
#X connect 17 0 13 0;
#X restore 500 131 pd kick?;
#X text 569 133 intergrate kicker on intercept;
#X connect 0 0 9 0;
#X connect 0 0 25 0;
#X connect 1 0 3 0;
#X connect 1 0 35 0;
#X connect 1 0 39 0;
#X connect 2 0 4 0;
#X connect 2 0 29 0;
#X connect 2 0 35 1;
#X connect 2 0 55 0;
#X connect 3 0 60 0;
#X connect 4 0 60 0;
#X connect 5 0 60 0;
#X connect 6 0 60 0;
#X connect 8 0 11 0;
#X connect 9 0 8 0;
#X connect 9 0 23 0;
#X connect 9 0 31 0;
#X connect 9 0 32 0;
#X connect 10 0 9 1;
#X connect 11 0 10 0;
#X connect 12 0 13 0;
#X connect 13 0 10 0;
#X connect 15 0 16 0;
#X connect 16 0 10 0;
#X connect 17 0 7 0;
#X connect 18 0 7 0;
#X connect 23 0 60 0;
#X connect 25 0 9 0;
#X connect 28 0 51 0;
#X connect 29 0 5 0;
#X connect 29 0 26 0;
#X connect 29 0 40 0;
#X connect 30 0 17 0;
#X connect 30 0 28 0;
#X connect 30 0 12 0;
#X connect 31 0 7 0;
#X connect 32 0 1 0;
#X connect 32 0 18 0;
#X connect 33 0 34 0;
#X connect 33 0 35 1;
#X connect 34 0 29 0;
#X connect 34 0 30 0;
#X connect 34 0 39 0;
#X connect 34 0 40 0;
#X connect 35 0 36 0;
#X connect 35 0 40 1;
#X connect 39 0 2 0;
#X connect 40 0 6 0;
#X connect 40 0 27 0;
#X connect 40 0 30 0;
#X connect 44 0 49 0;
#X connect 45 0 46 0;
#X connect 46 0 48 0;
#X connect 48 0 47 0;
#X connect 49 0 59 0;
#X connect 50 0 42 0;
#X connect 50 0 53 0;
#X connect 51 0 50 0;
#X connect 51 0 58 0;
#X connect 55 0 58 0;
#X connect 58 0 50 1;
#X connect 59 0 50 0;
#X connect 60 0 54 0;
#X connect 60 0 56 0;
#X restore 616 103 pd save_goal;
#X obj 170 -55 r inside_goal;
#X obj 122 115 tgl 30 0 empty empty empty 17 7 0 10 -262144 -1 -1 0
1;
#N canvas 167 105 895 549 kick 0;
#X obj 87 154 change;
#X obj 48 263 s kick;
#X obj 87 132 snapshot~;
#X obj 212 83 tgl 15 0 empty empty empty 17 7 0 10 -262144 -1 -1 1
1;
#X obj 212 57 loadbang;
#X text 88 17 toggles kicker;
#X obj 212 107 metro 10;
#X obj 88 44 inlet~;
#X floatatom 154 153 5 0 0 0 - - -, f 5;
#X floatatom 147 179 5 0 0 0 - - -, f 5;
#X obj 88 77 lop~ 1;
#X obj 87 105 expr~ $v1 >= 0.5;
#X obj 48 207 tgl 15 0 empty empty empty 17 7 0 10 -262144 -1 -1 1
1;
#X obj 48 185 metro 170;
#X obj 48 243 spigot;
#X obj 87 208 tgl 15 0 empty empty empty 17 7 0 10 -262144 -1 -1 0
1;
#X obj 14 140 loadbang;
#X obj 48 164 tgl 15 0 empty empty empty 17 7 0 10 -262144 -1 -1 1
1;
#X connect 0 0 9 0;
#X connect 0 0 15 0;
#X connect 2 0 0 0;
#X connect 2 0 8 0;
#X connect 3 0 6 0;
#X connect 4 0 3 0;
#X connect 6 0 2 0;
#X connect 7 0 10 0;
#X connect 10 0 11 0;
#X connect 11 0 2 0;
#X connect 12 0 14 0;
#X connect 13 0 12 0;
#X connect 14 0 1 0;
#X connect 15 0 14 1;
#X connect 16 0 17 0;
#X connect 17 0 13 0;
#X restore 205 156 pd kick;
#N canvas 262 303 584 354 face-ball 0;
#X obj 38 162 clip -1 1;
#X obj 38 57 inlet;
#X obj 38 186 outlet;
#X obj 38 90 expr if($f1 > 20 \, $f1 - 20 \, if($f1 < -20 \, $f1 +
20 \, 0));
#X obj 38 117 / 160;
#X obj 38 140 * 2;
#X connect 0 0 2 0;
#X connect 1 0 3 0;
#X connect 3 0 4 0;
#X connect 4 0 5 0;
#X connect 5 0 0 0;
#X restore 452 230 pd face-ball;
#X obj 450 205 r ball_angle;
#X obj 453 286 sig~;
#X obj 453 308 *~;
#X obj 453 340 throw~ steering;
#X obj 55 273 loadbang;
#X msg 86 304 1;
#X floatatom 86 326 5 0 0 0 - - -, f 5;
#X obj 84 371 throw~ throttle;
#X floatatom 558 247 5 0 0 0 - - -, f 5;
#X obj 181 -35 sig~;
#X obj 291 -15 *~;
#X obj 292 98 s~ intercept_ball_mode;
#X obj 291 49 lop~ 1;
#X obj 205 133 r~ intercept_ball_mode;
#X obj 291 71 expr~ $v1 >= 0.5;
#X obj 59 78 sig2num~;
#X obj 134 337 r~ intercept_ball_mode;
#X obj 86 345 *~;
#X text 569 199 TODO: convert face-ball to use signals;
#X obj 495 297 r~ intercept_ball_mode;
#X obj 293 -58 r~ ball_detected~;
#X obj 558 -25 r ball_distance;
#X obj 290 8 *~;
#X floatatom 558 -3 5 0 0 0 - - -, f 5;
#X obj 455 -60 r homed;
#X obj 455 -38 sig~;
#X obj 290 28 *~;
#X obj 113 -36 moses 1;
#X msg 134 -17 0;
#X obj 159 5 s homed;
#X obj 546 13 expr $f1 <= 0.6, f 16;
#X connect 1 0 14 0;
#X connect 1 0 32 0;
#X connect 4 0 13 0;
#X connect 4 0 6 0;
#X connect 5 0 4 0;
#X connect 6 0 7 0;
#X connect 7 0 8 0;
#X connect 9 0 10 0;
#X connect 10 0 11 0;
#X connect 11 0 22 0;
#X connect 14 0 15 1;
#X connect 15 0 27 0;
#X connect 17 0 19 0;
#X connect 18 0 3 0;
#X connect 19 0 16 0;
#X connect 19 0 20 0;
#X connect 20 0 2 0;
#X connect 21 0 22 1;
#X connect 22 0 12 0;
#X connect 24 0 7 1;
#X connect 25 0 15 0;
#X connect 26 0 28 0;
#X connect 26 0 35 0;
#X connect 27 0 31 0;
#X connect 29 0 30 0;
#X connect 30 0 31 1;
#X connect 31 0 17 0;
#X connect 32 0 33 0;
#X connect 33 0 34 0;
#X connect 35 0 27 1;
#X coords 0 -1 1 1 85 60 1 100 100;
#X restore 186 -219 pd intercept_ball;
#X obj 906 880 s steering_toggle;
#X obj 850 682 tgl 50 0 empty empty Ball_very_near 0 -5 0 10 -262144
-1 -1 0 1;
#N canvas 23 75 965 747 save_goal 0;
#X obj 128 62 inlet;
#X obj 181 223 bng 15 250 50 0 empty empty empty 17 7 0 10 -262144
-1 -1;
#X obj 286 284 bng 15 250 50 0 empty empty empty 17 7 0 10 -262144
-1 -1;
#X msg 257 559 1;
#X msg 313 561 0;
#X msg 368 565 -1;
#X msg 420 565 0;
#X obj 456 671 outlet;
#X obj 236 43 bng 15 250 50 0 empty empty empty 17 7 0 10 -262144 -1
-1;
#X obj 134 138 spigot;
#X obj 259 92 tgl 15 0 empty empty empty 17 7 0 10 -262144 -1 -1 1
1;
#X msg 245 66 0;
#X obj 291 40 bng 15 250 50 0 empty empty empty 17 7 0 10 -262144 -1
-1;
#X msg 291 66 1;
#X text 172 19 drive towards the ball \, then move back.;
#X obj 388 43 loadbang;
#X msg 339 68 1;
#X msg 457 642 1;
#X msg 65 641 0;
#X text 214 221 drive forwards;
#X text 317 283 stop;
#X text 503 445 stop;
#X text 382 367 drive backwards;
#X msg 215 562 0;
#X text 507 671 not running;
#X obj 95 72 bng 15 250 50 0 empty empty empty 17 7 0 10 -262144 -1
-1;
#X obj 362 366 bng 15 250 50 0 empty empty empty 17 7 0 10 -262144
-1 -1;
#X obj 483 446 bng 15 250 50 0 empty empty empty 17 7 0 10 -262144
-1 -1;
#X obj 756 496 bng 15 250 50 0 empty empty empty 17 7 0 10 -262144
-1 -1;
#X obj 297 311 delay 1500;
#X obj 480 469 delay 1500;
#X msg 134 629 1;
#X obj 65 214 delay 500;
#X obj 575 261 inlet;
#X msg 575 283 stop;
#X obj 456 233 timer;
#X floatatom 470 260 5 0 0 0 - - -, f 5;
#X obj 599 335 t b b;
#X text 616 195 interupting the sequence \, expecting a bang. Now using
range detection \, issues occured when not knowing the period already
driven backwards., f 19;
#X obj 238 246 delay 1500;
#X obj 361 390 delay 1500;
#X text 330 624 speed;
#X obj 749 654 outlet;
#X text 799 660 steering;
#X obj 749 399 r angle2goal;
#X floatatom 1339 59 5 0 0 0 - - -, f 5;
#X obj 1339 78 abs;
#X obj 1336 123 tgl 50 0 empty empty Facing_Goal. 17 7 0 10 -262144
-1 -1 0 1;
#X obj 1339 100 < 15;
#X floatatom 749 423 5 0 0 0 - - -, f 5;
#X obj 749 572 *;
#X msg 756 523 0;
#X text 750 333 Steer using vision while driving backwards, f 13;
#X floatatom 767 617 5 0 0 0 - - -, f 5;
#X obj 281 623 outlet;
#X msg 790 523 1;
#X floatatom 232 624 5 0 0 0 - - -, f 5;
#X text 778 492 Restore control;
#X obj 767 546 tgl 15 0 empty empty empty 17 7 0 10 -262144 -1 -1 0
1;
#X obj 749 445 * 0.01;
#X obj 281 601 * 0.3;
#X connect 0 0 9 0;
#X connect 0 0 25 0;
#X connect 1 0 3 0;
#X connect 1 0 35 0;
#X connect 1 0 39 0;
#X connect 2 0 4 0;
#X connect 2 0 29 0;
#X connect 2 0 35 1;
#X connect 2 0 55 0;
#X connect 3 0 60 0;
#X connect 4 0 60 0;
#X connect 5 0 60 0;
#X connect 6 0 60 0;
#X connect 8 0 11 0;
#X connect 9 0 8 0;
#X connect 9 0 23 0;
#X connect 9 0 31 0;
#X connect 9 0 32 0;
#X connect 10 0 9 1;
#X connect 11 0 10 0;
#X connect 12 0 13 0;
#X connect 13 0 10 0;
#X connect 15 0 16 0;
#X connect 16 0 10 0;
#X connect 17 0 7 0;
#X connect 18 0 7 0;
#X connect 23 0 60 0;
#X connect 25 0 9 0;
#X connect 28 0 51 0;
#X connect 29 0 5 0;
#X connect 29 0 26 0;
#X connect 29 0 40 0;
#X connect 30 0 17 0;
#X connect 30 0 28 0;
#X connect 30 0 12 0;
#X connect 31 0 7 0;
#X connect 32 0 1 0;
#X connect 32 0 18 0;
#X connect 33 0 34 0;
#X connect 33 0 35 1;
#X connect 34 0 29 0;
#X connect 34 0 30 0;
#X connect 34 0 39 0;
#X connect 34 0 40 0;
#X connect 35 0 36 0;
#X connect 35 0 40 1;
#X connect 39 0 2 0;
#X connect 40 0 6 0;
#X connect 40 0 27 0;
#X connect 40 0 30 0;
#X connect 44 0 49 0;
#X connect 45 0 46 0;
#X connect 46 0 48 0;
#X connect 48 0 47 0;
#X connect 49 0 59 0;
#X connect 50 0 42 0;
#X connect 50 0 53 0;
#X connect 51 0 50 0;
#X connect 51 0 58 0;
#X connect 55 0 58 0;
#X connect 58 0 50 1;
#X connect 59 0 50 0;
#X connect 60 0 54 0;
#X connect 60 0 56 0;
#X restore 780 786 pd save_goal;
#X obj 912 815 tgl 50 1 empty empty steering_toggle 17 7 0 10 -262144
-1 -1 1 1;
#X floatatom 744 813 5 0 0 0 - - -, f 5;
#X obj 776 747 metro 4000;
#X obj 776 767 bng 15 250 50 0 empty empty empty 17 7 0 10 -262144
-1 -1;
#X obj 744 832 sig~;
#X obj 744 854 *~;
#X obj 789 811 tgl 50 1 empty empty throttle_toggle 17 7 0 10 -262144
-1 -1 1 1;
#X obj 727 905 throw~ throttle;
#X obj 877 750 bng 15 250 50 0 empty empty empty 17 7 0 10 -262144
-1 -1;
#X msg 725 775 0;
#X obj 772 881 s throttle_toggle;
#X obj 843 647 < 0.4;
#X obj 1034 812 sig~;
#X obj 1034 846 throw~ steering;
#N canvas 320 272 450 300 doomsday_counter 0;
#X obj 207 169 metro 1000;
#X obj 207 191 cyclone/counter;
#X floatatom 144 141 5 0 0 0 - - -, f 5;
#X obj 286 171 bng 15 250 50 0 empty empty empty 17 7 0 10 -262144
-1 -1;
#X obj 288 151 r reset_panic;
#X obj 101 116 tgl 40 1 empty empty PANIC_MODE 17 7 0 10 -262144 -1
-1 0 1;
#X obj 320 29 r inside_goal;
#X obj 320 51 change;
#X obj 231 20 tgl 50 0 empty empty inside_goal 17 7 0 10 -262144 -1
-1 0 1;
#X obj 320 73 * -1;
#X obj 320 95 + 1;
#X obj 322 121 tgl 15 0 empty empty empty 17 7 0 10 -262144 -1 -1 1
1;
#X obj 213 102 change;
#X obj 213 124 bang;
#X obj 93 171 s panic_mode;
#X text 394 65 countdown before triggering panic mode because robot
has left the goal area, f 23;
#X obj 206 209 > 3;
#X msg 50 174 0;
#X obj 50 196 s homed;
#X connect 0 0 1 0;
#X connect 1 0 2 0;
#X connect 1 0 16 0;
#X connect 3 0 1 3;
#X connect 5 0 14 0;
#X connect 5 0 17 0;
#X connect 6 0 7 0;
#X connect 6 0 8 0;
#X connect 7 0 9 0;
#X connect 9 0 10 0;
#X connect 10 0 0 0;
#X connect 10 0 11 0;
#X connect 10 0 12 0;
#X connect 12 0 13 0;
#X connect 13 0 3 0;
#X connect 16 0 5 0;
#X connect 17 0 18 0;
#X coords 0 -1 1 1 85 60 1 100 100;
#X restore 58 -145 pd doomsday_counter;
#N canvas 335 150 1055 727 sig2num 0;
#X obj 86 74 snapshot~;
#X obj 82 42 inlet~;
#X floatatom 122 123 5 0 0 0 - - -, f 5;
#X obj 212 64 metro 250;
#X obj 198 15 loadbang;
#X obj 166 122 tgl 15 0 empty empty empty 17 7 0 10 -262144 -1 -1 1
1;
#X connect 0 0 2 0;
#X connect 1 0 0 0;
#X connect 3 0 0 0;
#X connect 4 0 5 0;
#X connect 5 0 3 0;
#X coords 0 -1 1 1 85 60 1 100 100;
#X restore 1495 497 pd sig2num;
#N canvas 335 150 1055 727 sig2num 0;
#X obj 86 74 snapshot~;
#X obj 82 42 inlet~;
#X floatatom 122 123 5 0 0 0 - - -, f 5;
#X obj 212 64 metro 250;
#X obj 198 15 loadbang;
#X obj 166 122 tgl 15 0 empty empty empty 17 7 0 10 -262144 -1 -1 1
1;
#X connect 0 0 2 0;
#X connect 1 0 0 0;
#X connect 3 0 0 0;
#X connect 4 0 5 0;
#X connect 5 0 3 0;
#X coords 0 -1 1 1 85 60 1 100 100;
#X restore 1026 215 pd sig2num;
#X obj 970 -281 r reflectance;
#X floatatom 970 -259 5 0 0 0 - - -, f 5;
#X obj 970 -208 tgl 50 0 empty empty inside_goal 17 7 0 10 -262144
-1 -1 0 1;
#X floatatom 1051 -254 5 0 0 0 - - -, f 5;
#X obj 970 -240 > 800;
#X obj 970 -281 r reflectance;
#X floatatom 970 -259 5 0 0 0 - - -, f 5;
#X obj 970 -240 > 800;
#X obj 995 -150 s inside_goal;
#X obj 1161 -270 r ball_distance;
#X obj 1162 -251 moses 0.01;
#X obj 1164 -230 sig~;
#X obj 1164 -208 lop~ 1;
#X obj 1164 -186 s~ ball_distance~;
#N canvas 13 156 866 457 panic_spin 0;
#X obj 185 19 r panic_mode;
#X obj 441 20 r compass_heading;
#N canvas 409 226 549 344 heading 0;
#X obj 28 49 inlet;
#X obj 28 239 outlet;
#X text 97 22 veer towards target goal if outside of range -80..80
degrees. (deadzone);
#X obj 28 165 clip -2 2;
#X obj 28 108 / 180;
#X obj 28 134 * 1.2;
#X connect 0 0 4 0;
#X connect 3 0 1 0;
#X connect 4 0 5 0;
#X connect 5 0 3 0;
#X restore 346 272 pd heading;
#X obj 290 21 r goal_detected;
#X obj 290 43 expr $f1 * -1 + 1;
#X obj 441 42 abs;
#X obj 495 69 tgl 15 0 empty empty empty 17 7 0 10 -262144 -1 -1 1
1;
#X obj 281 94 expr $f1 * $f2 * $f3;
#X obj 108 116 tgl 30 0 empty panic_spin_trigger SPIN_MODE 17 7 0 10
-262144 -1 -1 0 1;
#X obj 281 116 moses 1;
#X msg 281 138 1;
#X obj 437 210 s panic_spin_trigger;
#X obj 604 60 r goal_detected;
#X obj 633 130 moses 1;
#X msg 637 156 0;
#X obj 727 60 r compass_heading;
#X obj 727 82 abs;
#X obj 509 249 r panic_spin_trigger;
#X obj 346 251 r compass_heading;
#X obj 346 293 sig~;
#X obj 255 338 throw~ steering;
#X obj 346 314 *~;
#X obj 727 104 < 5;
#X floatatom 777 87 5 0 0 0 - - -, f 5;
#X obj 441 64 > 5;
#X obj 625 107 *;
#X obj 657 81 t b f;
#X obj 379 334 sig2num~;
#X obj 379 356 s spinning;
#X connect 0 0 7 0;
#X connect 1 0 5 0;
#X connect 2 0 19 0;
#X connect 3 0 4 0;
#X connect 4 0 7 1;
#X connect 5 0 24 0;
#X connect 7 0 9 0;
#X connect 9 1 10 0;
#X connect 10 0 11 0;
#X connect 12 0 25 0;
#X connect 13 1 14 0;
#X connect 14 0 11 0;
#X connect 15 0 16 0;
#X connect 15 0 23 0;
#X connect 16 0 22 0;
#X connect 17 0 21 1;
#X connect 18 0 2 0;
#X connect 19 0 21 0;
#X connect 21 0 20 0;
#X connect 21 0 27 0;
#X connect 22 0 13 0;
#X connect 22 0 26 0;
#X connect 24 0 6 0;
#X connect 24 0 7 2;
#X connect 25 0 13 0;
#X connect 26 0 25 0;
#X connect 26 1 25 1;
#X connect 27 0 28 0;
#X coords 0 -1 1 1 85 60 1 100 100;
#X restore 221 -137 pd panic_spin;
#N canvas 80 159 1009 540 homing 0;
#X obj 35 188 r angle2goal;
#X obj 199 252 sig~;
#X obj 279 -65 r goal_detected;
#X floatatom 35 210 5 0 0 0 - - -, f 5;
#X obj 35 276 sig~;
#X obj 35 303 *~;
#X obj 103 117 tgl 30 0 empty HOMING_TRIGGER HOMING_MODE 17 7 0 10
-262144 -1 -1 0 1;
#X obj 306 -26 tgl 15 0 empty empty empty 17 7 0 10 -262144 -1 -1 1
1;
#N canvas 335 150 1055 727 sig2num 0;
#X obj 86 74 snapshot~;
#X obj 82 42 inlet~;
#X floatatom 122 123 5 0 0 0 - - -, f 5;
#X obj 212 64 metro 250;
#X obj 198 15 loadbang;
#X obj 166 122 tgl 15 0 empty empty empty 17 7 0 10 -262144 -1 -1 1
1;
#X connect 0 0 2 0;
#X connect 1 0 0 0;
#X connect 3 0 0 0;
#X connect 4 0 5 0;
#X connect 5 0 3 0;
#X coords 0 -1 1 1 85 60 1 100 100;
#X restore 346 296 pd sig2num;
#N canvas 395 168 288 268 diy_pwm 0;
#X obj 18 59 outlet~;
#X obj 18 37 expr~ $v1 < 0.15;
#X obj 18 15 phasor~ 1;
#X connect 1 0 0 0;
#X connect 2 0 1 0;
#X restore 77 276 pd diy_pwm;
#X obj 35 251 *;
#X obj 78 219 t b f;
#X obj 33 326 throw~ steering;
#X obj 198 317 throw~ throttle;
#X obj 237 1 t b f;
#X obj 172 27 *;
#X obj 119 -61 r inside_goal;
#X obj 119 -39 expr $f1 * -1 + 1;
#X obj 122 -14 tgl 15 0 empty empty empty 17 7 0 10 -262144 -1 -1 1
1;
#X obj 267 143 s HOMING_TRIGGER;
#X obj 199 188 r HOMING_TRIGGER;
#X text 562 200 TODO: improve backtracking \, keep driving backwards
unti close to goal.;
#X obj 419 -63 r range;
#X obj 422 -44 moses 0;
#X obj 429 -20 > 10;
#X obj 172 49 *;
#X obj 233 28 t b f;
#X obj 199 188 r HOMING_TRIGGER;
#X msg 236 97 1;
#X obj 388 40 r homed;
#X obj 431 72 moses 1;
#X msg 386 100 0;
#X floatatom 388 62 5 0 0 0 - - -, f 5;
#X obj 172 71 moses 1;
#X obj 35 228 / 30;
#X obj 514 42 r goal_detected;
#X obj 514 64 expr $f1 * -1 + 1;
#X floatatom 514 86 5 0 0 0 - - -, f 5;
#X obj 199 230 * -0.1;
#X connect 0 0 3 0;
#X connect 1 0 13 0;
#X connect 1 0 8 0;
#X connect 2 0 7 0;
#X connect 2 0 14 0;
#X connect 3 0 34 0;
#X connect 4 0 5 0;
#X connect 5 0 12 0;
#X connect 9 0 5 1;
#X connect 10 0 4 0;
#X connect 11 0 10 0;
#X connect 11 1 10 1;
#X connect 14 0 15 0;
#X connect 14 1 15 1;
#X connect 15 0 25 0;
#X connect 16 0 17 0;
#X connect 17 0 18 0;
#X connect 18 0 15 0;
#X connect 20 0 11 0;
#X connect 20 0 38 0;
#X connect 22 0 23 0;
#X connect 23 1 24 0;
#X connect 24 0 26 0;
#X connect 25 0 33 0;
#X connect 26 0 25 0;
#X connect 26 1 25 1;
#X connect 28 0 19 0;
#X connect 29 0 30 0;
#X connect 29 0 32 0;
#X connect 30 1 31 0;
#X connect 31 0 19 0;
#X connect 33 1 28 0;
#X connect 34 0 10 0;
#X connect 35 0 36 0;
#X connect 36 0 30 0;
#X connect 36 0 37 0;
#X connect 38 0 1 0;
#X coords 0 -1 1 1 85 60 1 100 100;
#X restore 333 -220 pd homing;
#N canvas 102 51 1009 540 panic_homing 0;
#X obj 35 188 r angle2goal;
#X obj 199 267 sig~;
#X obj 279 -65 r goal_detected;
#X obj 142 -62 r compass_heading;
#X obj 142 -40 abs;
#X obj 142 -18 < 90;
#X obj 117 44 expr $f1 * $f2 * $f3;
#X floatatom 35 210 5 0 0 0 - - -, f 5;
#X obj 35 276 sig~;
#X obj 35 303 *~;
#X obj 115 125 tgl 15 0 empty PANIC_HOME_TRIGGER panic_mode_home 17
7 0 10 -262144 -1 -1 0 1;
#X obj 112 69 s PANIC_HOME_TRIGGER;
#X obj 199 188 r PANIC_HOME_TRIGGER;
#X obj 306 -26 tgl 15 0 empty empty empty 17 7 0 10 -262144 -1 -1 1
1;
#N canvas 335 150 1055 727 sig2num 0;
#X obj 86 74 snapshot~;
#X obj 82 42 inlet~;
#X floatatom 122 123 5 0 0 0 - - -, f 5;
#X obj 212 64 metro 250;
#X obj 198 15 loadbang;
#X obj 166 122 tgl 15 0 empty empty empty 17 7 0 10 -262144 -1 -1 1
1;
#X connect 0 0 2 0;
#X connect 1 0 0 0;
#X connect 3 0 0 0;
#X connect 4 0 5 0;
#X connect 5 0 3 0;
#X coords 0 -1 1 1 85 60 1 100 100;
#X restore 346 296 pd sig2num;
#N canvas 401 118 171 119 diy_pwm 0;
#X obj 18 59 outlet~;
#X obj 18 15 phasor~ 1;
#X obj 18 37 expr~ $v1 < 0.15;
#X connect 1 0 2 0;
#X connect 2 0 0 0;
#X restore 87 283 pd diy_pwm;
#X obj 35 229 / 64;
#X obj 199 245 * -0.1;
#X obj 35 251 *;
#X obj 394 256 print;
#X obj 78 219 t b f;
#X obj 33 326 throw~ steering;
#X obj 198 317 throw~ throttle;
#X obj 96 -24 tgl 15 0 empty empty empty 17 7 0 10 -262144 -1 -1 1
1;
#X obj 237 1 t b f;
#X obj 129 5 t b f;
#X obj 56 82 tgl 15 0 empty empty empty 17 7 0 10 -262144 -1 -1 0 1
;
#X connect 0 0 7 0;
#X connect 1 0 22 0;
#X connect 2 0 13 0;
#X connect 2 0 24 0;
#X connect 3 0 4 0;
#X connect 4 0 5 0;
#X connect 5 0 23 0;
#X connect 5 0 25 0;
#X connect 6 0 11 0;
#X connect 6 0 26 0;
#X connect 7 0 16 0;
#X connect 8 0 9 0;
#X connect 9 0 14 0;
#X connect 9 0 21 0;
#X connect 12 0 17 0;
#X connect 12 0 20 0;
#X connect 15 0 9 1;
#X connect 16 0 18 0;
#X connect 17 0 1 0;
#X connect 18 0 8 0;
#X connect 20 0 18 0;
#X connect 20 1 18 1;
#X connect 24 0 6 0;
#X connect 24 1 6 2;
#X connect 25 0 6 0;
#X connect 25 1 6 1;
#X coords 0 -1 1 1 85 60 1 100 100;
#X restore 94 79 pd panic_homing;
#N canvas 1 51 1265 722 homed 0;
#X obj 424 18 r goal_detected;
#X obj 451 57 tgl 15 0 empty empty empty 17 7 0 10 -262144 -1 -1 1
1;
#X obj 382 84 t b f;
#X obj 317 110 *;
#X obj 292 22 r inside_goal;
#X obj 293 49 tgl 15 0 empty empty empty 17 7 0 10 -262144 -1 -1 0
1;
#X obj 564 20 r range;
#X obj 567 39 moses 0;
#X obj 317 132 *;
#X obj 378 111 t b f;
#X obj 317 201 s homed;
#X obj 110 121 tgl 30 0 empty homed homed 17 7 0 10 -262144 -1 -1 1
1;
#X floatatom 641 34 5 0 0 0 - - -, f 5;
#X obj 729 30 inlet;
#X obj 574 63 <;
#X obj 317 154 moses 1;
#X msg 320 177 1;
#X connect 0 0 1 0;
#X connect 0 0 2 0;
#X connect 2 0 3 0;
#X connect 2 1 3 1;
#X connect 3 0 8 0;
#X connect 4 0 5 0;
#X connect 5 0 3 0;
#X connect 6 0 7 0;
#X connect 6 0 12 0;
#X connect 7 1 14 0;
#X connect 8 0 15 0;
#X connect 9 0 8 0;
#X connect 9 1 8 1;
#X connect 13 0 14 1;
#X connect 14 0 9 0;
#X connect 15 1 16 0;
#X connect 16 0 10 0;
#X coords 0 -1 1 1 85 60 1 100 100;
#X restore 441 -217 pd homed;
#X obj 1345 -187 sig~;
#X obj 1347 -165 s~ ball_detected~;
#N canvas 449 105 698 479 panic_drive 0;
#X obj 190 64 expr $f1 * -1 +1;
#X obj 190 42 r spinning;
#X msg 210 176 1;
#X floatatom 210 198 5 0 0 0 - - -, f 5;
#X obj 209 264 throw~ throttle;
#X obj 206 148 loadbang;
#X obj 320 63 expr $f1 * -1 + 1;
#X obj 268 201 r panic_drive_mode;
#X obj 210 217 *;
#X obj 295 123 s panic_drive_mode;
#X obj 321 42 r goal_detected;
#X floatatom 464 69 5 0 0 0 - - -, f 5;
#X obj 210 239 sig~;
#X obj 104 122 tgl 30 0 empty panic_drive_mode panic_drive 17 7 0 10
-262144 -1 -1 0 1;
#X obj 511 37 r panic;
#X obj 294 99 expr $f1 * $f2 * $f3;
#X connect 0 0 15 0;
#X connect 1 0 0 0;
#X connect 2 0 3 0;
#X connect 3 0 8 0;
#X connect 5 0 2 0;
#X connect 6 0 15 1;
#X connect 7 0 8 1;
#X connect 8 0 12 0;
#X connect 10 0 6 0;
#X connect 10 0 11 0;
#X connect 12 0 4 0;
#X connect 14 0 15 2;
#X connect 15 0 9 0;
#X coords 0 -1 1 1 85 60 1 100 100;
#X restore 340 -146 pd panic_drive;
#X obj 607 -281 loadbang;
#X floatatom 607 -237 5 0 0 0 - - -, f 5;
#X obj 755 -243 >;
#X msg 607 -259 14;
#N canvas 0 52 1280 722 default 0;
#X obj 195 31 r~ intercept_ball_mode;
#X obj 639 38 r HOMING_TRIGGER;
#X obj 528 38 r panic_mode;
#X obj 30 31 r~ rotate2ball_mode;
#X obj 872 38 r panic_spin_trigger;
#X obj 365 36 r panic_drive_mode;
#X obj 780 37 r homed;
#X obj 30 53 sig2num~;
#X obj 197 51 sig2num~;
#X obj 308 135 expr $f1 + $f2 + $f3 + $f4 + $f5 + $f6 + $f7;
#X floatatom 308 157 5 0 0 0 - - -, f 5;
#X obj 308 176 == 0;
#X floatatom 308 197 5 0 0 0 - - -, f 5;
#X msg 308 216 1;
#X obj 308 238 s homed;
#X connect 0 0 8 0;
#X connect 1 0 9 4;
#X connect 2 0 9 3;
#X connect 3 0 7 0;
#X connect 4 0 9 6;
#X connect 5 0 9 2;
#X connect 6 0 9 5;
#X connect 7 0 9 0;
#X connect 8 0 9 1;
#X connect 9 0 10 0;
#X connect 10 0 11 0;
#X connect 11 0 12 0;
#X connect 12 0 13 0;
#X connect 13 0 14 0;
#X restore 145 -19 pd default;
#X connect 0 0 9 0;
#X connect 0 0 15 0;
#X connect 1 0 2 0;
#X connect 2 0 3 0;
#X connect 3 1 114 0;
#X connect 5 0 18 0;
#X connect 6 0 19 0;
#X connect 6 0 26 0;
#X connect 9 0 10 0;
#X connect 11 0 12 0;
#X connect 11 0 4 0;
#X connect 12 0 14 0;
#X connect 14 0 13 0;
#X connect 14 1 13 1;
#X connect 15 0 16 0;
#X connect 16 0 32 0;
#X connect 17 0 45 0;
#X connect 18 0 109 0;
#X connect 19 0 20 0;
#X connect 20 0 22 0;
#X connect 21 0 29 1;
#X connect 21 0 30 0;
#X connect 22 0 21 0;
#X connect 23 0 24 0;
#X connect 24 0 28 0;
#X connect 26 0 27 0;
#X connect 27 0 29 0;
#X connect 29 0 25 0;
#X connect 30 0 25 0;
#X connect 31 0 34 1;
#X connect 32 0 34 0;
#X connect 37 0 42 0;
#X connect 38 0 41 0;
#X connect 39 0 40 0;
#X connect 40 0 37 0;
#X connect 40 0 38 0;
#X connect 43 0 47 1;
#X connect 44 0 47 1;
#X connect 45 0 44 0;
#X connect 45 1 43 0;
#X connect 47 0 8 0;
#X connect 51 0 8 2;
#X connect 52 0 47 0;
#X connect 54 0 58 0;
#X connect 54 0 57 0;
#X connect 55 0 60 0;
#X connect 56 0 55 0;
#X connect 57 0 61 0;
#X connect 58 0 59 0;
#X connect 60 0 61 0;
#X connect 60 1 61 1;
#X connect 61 0 62 0;
#X connect 62 0 63 0;
#X connect 64 0 63 1;
#X connect 67 0 68 0;
#X connect 68 0 69 0;
#X connect 69 1 56 0;
#X connect 72 0 76 0;
#X connect 73 0 75 0;
#X connect 73 1 74 0;
#X connect 73 2 86 0;
#X connect 75 0 78 0;
#X connect 76 0 77 0;
#X connect 77 0 73 0;
#X connect 78 0 79 0;
#X connect 80 0 79 1;
#X connect 82 0 73 1;
#X connect 83 0 75 0;
#X connect 85 0 72 0;
#X connect 91 0 92 0;
#X connect 92 0 95 0;
#X connect 93 0 99 0;
#X connect 94 0 95 1;
#X connect 95 0 93 0;
#X connect 96 0 97 0;
#X connect 97 0 98 0;
#X connect 100 0 101 0;
#X connect 101 1 102 0;
#X connect 102 0 103 0;
#X connect 103 0 104 0;
#X connect 109 0 110 0;
#X connect 112 0 115 0;
#X connect 113 0 108 0;
#X connect 113 0 114 1;
#X connect 114 0 17 0;
#X connect 115 0 113 0;
#X coords 0 718 1 717 85 60 0;
