#N canvas 45 64 1056 727 10;
#X obj 29 39 r ball_angle;
#X obj 327 36 r compass_heading;
#X obj 165 34 r ball_distance;
#X obj 506 38 r range;
#X floatatom 506 65 5 0 0 0 - - -, f 5;
#X obj 506 84 moses 0;
#X obj 316 497 tgl 50 0 empty empty Ball_Detected 17 7 0 10 -262144
-1 -1 0 1;
#X obj 552 106 > 14;
#X obj 522 479 r ball_detected;
#X obj 836 27 r angle2goal;
#N canvas 0 52 1234 731 motor-serial 0;
#X text 69 49 Tell motor-control what serial device to use:;
#X msg 76 117 devicename /dev/serial/by-id/usb-DSpace__www.dspace.org.nz__DSpace_Robot_2.0_55234313335351A0D161-if00
;
#X obj 76 165 s motor_device;
#X obj 76 71 loadbang;
#X obj 76 93 delay 50;
#X connect 1 0 2 0;
#X connect 3 0 4 0;
#X connect 4 0 1 0;
#X restore 778 590 pd motor-serial;
#N canvas 766 108 676 568 differential_drive 0;
#X obj 217 287 vsl 15 100 -1 1 0 0 empty empty empty 0 -9 0 10 -262144
-1 -1 0 1;
#X obj 293 284 vsl 15 100 -1 1 0 0 empty empty empty 0 -9 0 10 -262144
-1 -1 0 1;
#X obj 279 -22 vsl 15 100 -1 1 0 0 empty empty empty 0 -9 0 10 -262144
-1 -1 0 1;
#X obj 235 117 hsl 100 15 -1 1 0 0 empty empty empty -2 -8 0 10 -262144
-1 -1 0 1;
#X obj 217 237 +;
#X obj 293 237 +;
#X floatatom 275 91 5 0 0 0 - - -, f 5;
#X obj 217 259 clip -1 1;
#X obj 246 207 t b f;
#X obj 306 176 * -1;
#X obj 306 207 t b f;
#X obj 293 259 clip -1 1;
#X floatatom 177 149 5 0 0 0 - - -, f 5;
#X obj 151 451 s left_speed;
#X obj 301 449 s right_speed;
#X obj 116 52 inlet;
#X obj 434 53 inlet;
#X text 71 32 forward/ backwards;
#X text 412 30 left/right;
#X connect 0 0 13 0;
#X connect 1 0 14 0;
#X connect 2 0 6 0;
#X connect 3 0 8 0;
#X connect 3 0 9 0;
#X connect 3 0 12 0;
#X connect 4 0 7 0;
#X connect 5 0 11 0;
#X connect 6 0 4 0;
#X connect 6 0 5 0;
#X connect 7 0 0 0;
#X connect 8 0 4 0;
#X connect 8 1 4 1;
#X connect 9 0 10 0;
#X connect 10 0 5 0;
#X connect 10 1 5 1;
#X connect 11 0 1 0;
#X connect 15 0 2 0;
#X connect 16 0 3 0;
#X restore 354 679 pd differential_drive;
#X floatatom 348 68 5 0 0 0 - - -, f 5;
#X obj 351 90 hsl 64 15 -180 180 0 0 empty empty empty -2 -8 0 10 -262144
-1 -1 3643 1;
#X floatatom 165 59 8 0 0 0 - - -, f 8;
#X obj 502 619 *;
#X obj 523 572 t b f;
#X obj 309 467 r ball_detected;
#X floatatom 315 553 5 0 0 0 - - -, f 5;
#X obj 294 628 *;
#X obj 315 581 t b f;
#N canvas 0 52 1219 727 heading 0;
#X obj 457 288 clip -1 1;
#X obj 449 180 inlet;
#X obj 458 402 outlet;
#X obj 455 236 expr if($f1 > 80 \, $f1 - 80 \, if($f1 < -80 \, $f1
+ 80 \, 0));
#X obj 456 262 / 100;
#X connect 0 0 2 0;
#X connect 1 0 3 0;
#X connect 3 0 4 0;
#X connect 4 0 0 0;
#X restore 327 119 pd heading;
#X floatatom 371 155 5 0 0 0 - - -, f 5;
#X obj 552 132 tgl 50 0 empty empty way_is_clear 17 7 0 10 -262144
-1 -1 1 1;
#X obj 525 511 tgl 50 0 empty empty Ball_Detected 17 7 0 10 -262144
-1 -1 0 1;
#X obj 131 149 tgl 50 0 empty empty Ball_nearish 0 -5 0 10 -262144
-1 -1 0 1;
#X obj 225 150 tgl 50 0 empty empty Ball_very_near 0 -5 0 10 -262144
-1 -1 0 1;
#X obj 142 112 < 1;
#N canvas 102 51 893 540 face-ball 0;
#X obj 38 142 clip -1 1;
#X obj 38 57 inlet;
#X obj 38 186 outlet;
#X obj 38 90 expr if($f1 > 20 \, $f1 - 20 \, if($f1 < -20 \, $f1 +
20 \, 0));
#X obj 38 117 / 160;
#X connect 0 0 2 0;
#X connect 1 0 3 0;
#X connect 3 0 4 0;
#X connect 4 0 0 0;
#X restore 29 210 pd face-ball;
#X floatatom 39 68 5 0 0 0 - - -, f 5;
#X obj 42 90 hsl 64 15 -180 180 0 0 empty empty empty -2 -8 0 10 -262144
-1 -1 3150 1;
#X obj 187 312 t b f;
#X obj 187 334 *;
#X text 188 277 Only face ball when ball is near, f 18;
#X text 25 402 Dealing with reflections off the goal will be especially
tricky for the goalie. It will affect the apaprent ball distance as
well as the angle., f 25;
#X obj 202 111 < 0.25;
#N canvas 330 195 742 471 save_goal 0;
#X obj 104 28 inlet;
#X obj 238 341 outlet;
#X obj 203 167 bng 15 250 50 0 empty empty empty 17 7 0 10 -262144
-1 -1;
#X obj 271 235 bng 15 250 50 0 empty empty empty 17 7 0 10 -262144
-1 -1;
#X msg 234 286 1;
#X msg 290 288 0;
#X msg 323 242 -1;
#X msg 364 284 0;
#X obj 447 373 outlet;
#X obj 236 43 bng 15 250 50 0 empty empty empty 17 7 0 10 -262144 -1
-1;
#X obj 134 138 spigot;
#X obj 259 92 tgl 15 0 empty empty empty 17 7 0 10 -262144 -1 -1 1
1;
#X msg 245 66 0;
#X obj 54 140 moses 1;
#X obj 291 40 bng 15 250 50 0 empty empty empty 17 7 0 10 -262144 -1
-1;
#X msg 291 66 1;
#X text 172 19 drive towards the ball \, then move back.;
#X obj 388 43 loadbang;
#X msg 339 68 1;
#X obj 54 117 change;
#X msg 532 286 1;
#X msg 156 364 0;
#X text 197 187 drive forwards;
#X text 345 185 stop;
#X text 549 212 stop;
#X text 420 196 drive backwards;
#X msg 192 289 0;
#X text 504 372 not running;
#X obj 62 42 bng 15 250 50 0 empty empty empty 17 7 0 10 -262144 -1
-1;
#X obj 363 236 bng 15 250 50 0 empty empty empty 17 7 0 10 -262144
-1 -1;
#X obj 450 248 bng 15 250 50 0 empty empty empty 17 7 0 10 -262144
-1 -1;
#X obj 556 267 bng 15 250 50 0 empty empty empty 17 7 0 10 -262144
-1 -1;
#X obj 347 210 delay 1500;
#X obj 534 241 delay 1500;
#X msg 166 331 1;
#X obj 245 205 delay 800;
#X obj 438 224 delay 800;
#X obj 244 144 delay 500;
#X connect 0 0 19 0;
#X connect 0 0 10 0;
#X connect 0 0 28 0;
#X connect 2 0 4 0;
#X connect 2 0 35 0;
#X connect 3 0 5 0;
#X connect 3 0 32 0;
#X connect 4 0 1 0;
#X connect 5 0 1 0;
#X connect 6 0 1 0;
#X connect 7 0 1 0;
#X connect 9 0 12 0;
#X connect 10 0 9 0;
#X connect 10 0 26 0;
#X connect 10 0 34 0;
#X connect 10 0 37 0;
#X connect 11 0 10 1;
#X connect 12 0 11 0;
#X connect 14 0 15 0;
#X connect 15 0 11 0;
#X connect 17 0 18 0;
#X connect 18 0 11 0;
#X connect 19 0 13 0;
#X connect 20 0 8 0;
#X connect 21 0 8 0;
#X connect 26 0 1 0;
#X connect 28 0 10 0;
#X connect 32 0 6 0;
#X connect 32 0 29 0;
#X connect 32 0 36 0;
#X connect 33 0 20 0;
#X connect 33 0 31 0;
#X connect 33 0 14 0;
#X connect 34 0 8 0;
#X connect 35 0 3 0;
#X connect 36 0 7 0;
#X connect 36 0 30 0;
#X connect 36 0 33 0;
#X connect 37 0 2 0;
#X connect 37 0 21 0;
#X restore 238 236 pd save_goal;
#X obj 503 645 spigot;
#X obj 350 290 tgl 15 0 empty empty empty 17 7 0 10 -262144 -1 -1 0
1;
#X floatatom 245 312 5 0 0 0 - - -, f 5;
#X obj 150 210 metro 4000;
#X obj 238 214 bng 15 250 50 0 empty empty empty 17 7 0 10 -262144
-1 -1;
#X msg 417 602 0, f 2;
#X floatatom 836 53 5 0 0 0 - - -, f 5;
#X obj 836 72 abs;
#X obj 833 117 tgl 50 0 empty empty Facing_Goal. 17 7 0 10 -262144
-1 -1 0 1;
#X obj 836 94 < 15;
#N canvas 426 323 594 357 diy_pwm 0;
#X obj 142 119 phasor~ 0.85;
#X obj 142 141 expr~ $v1 < 0.1;
#X obj 218 193 snapshot~;
#X obj 338 123 loadbang;
#X obj 281 161 metro 100;
#X obj 262 130 tgl 15 0 empty empty empty 17 7 0 10 -262144 -1 -1 1
1;
#X obj 203 264 outlet;
#X floatatom 218 215 5 0 0 0 - - -, f 5;
#X connect 0 0 1 0;
#X connect 1 0 2 0;
#X connect 2 0 7 0;
#X connect 3 0 5 0;
#X connect 4 0 2 0;
#X connect 5 0 4 0;
#X connect 7 0 6 0;
#X restore 928 130 pd diy_pwm;
#X floatatom 912 161 5 0 0 0 - - -, f 5;
#X obj 803 215 *;
#X obj 760 68 / 27;
#X floatatom 760 94 5 0 0 0 - - -, f 5;
#X obj 820 185 t b f;
#X obj 730 124 spigot;
#X obj 694 166 moses 0;
#X obj 424 149 tgl 50 0 empty empty empty 17 7 0 10 -262144 -1 -1 0
1;
#X obj 598 573 tgl 50 0 empty empty empty 17 7 0 10 -262144 -1 -1 0
1;
#X obj 601 635 spigot;
#X obj 374 189 sig~;
#X obj 382 283 throw~ steering;
#X obj 692 350 catch~ steering;
#X obj 697 381 snapshot~;
#X floatatom 699 486 5 0 0 0 - - -, f 5;
#X obj 810 385 metro;
#X obj 854 345 hsl 128 15 10 2000 0 0 empty empty empty -2 -8 0 10
-262144 -1 -1 0 1;
#X obj 849 287 loadbang;
#X floatatom 851 365 5 0 0 0 - - -, f 5;
#X obj 382 242 *~;
#N canvas 335 150 1055 727 sig2num 0;
#X obj 86 74 snapshot~;
#X obj 82 42 inlet~;
#X floatatom 122 123 5 0 0 0 - - -, f 5;
#X obj 212 64 metro 250;
#X obj 198 15 loadbang;
#X obj 166 122 tgl 15 0 empty empty empty 17 7 0 10 -262144 -1 -1 1
1;
#X connect 0 0 2 0;
#X connect 1 0 0 0;
#X connect 3 0 0 0;
#X connect 4 0 5 0;
#X connect 5 0 3 0;
#X coords 0 -1 1 1 85 60 1 100 100;
#X restore 795 633 pd sig2num;
#X obj 783 408 bng 15 250 50 0 empty empty empty 17 7 0 10 -262144
-1 -1;
#X obj 819 350 tgl 15 0 empty empty empty 17 7 0 10 -262144 -1 -1 0
1;
#X obj 350 318 s steering_toggle;
#X obj 770 463 r steering_toggle;
#X obj 771 483 tgl 15 0 empty empty empty 17 7 0 10 -262144 -1 -1 0
1;
#X obj 711 532 *;
#X obj 739 505 t b f;
#X floatatom 711 554 5 0 0 0 - - -, f 5;
#X obj 891 634 sig2num~;
#X connect 0 0 29 0;
#X connect 0 0 28 0;
#X connect 1 0 12 0;
#X connect 1 0 21 0;
#X connect 2 0 14 0;
#X connect 3 0 4 0;
#X connect 4 0 5 0;
#X connect 5 1 7 0;
#X connect 7 0 23 0;
#X connect 8 0 16 0;
#X connect 8 0 24 0;
#X connect 9 0 43 0;
#X connect 9 0 50 0;
#X connect 12 0 13 0;
#X connect 14 0 27 0;
#X connect 14 0 35 0;
#X connect 15 0 37 0;
#X connect 16 0 15 0;
#X connect 16 1 15 1;
#X connect 17 0 18 0;
#X connect 17 0 6 0;
#X connect 18 0 20 0;
#X connect 20 0 19 0;
#X connect 20 1 19 1;
#X connect 21 0 22 0;
#X connect 22 0 58 0;
#X connect 25 0 31 0;
#X connect 26 0 40 0;
#X connect 27 0 25 0;
#X connect 28 0 32 0;
#X connect 29 0 30 0;
#X connect 31 0 32 0;
#X connect 31 1 32 1;
#X connect 32 0 15 0;
#X connect 35 0 26 0;
#X connect 36 0 39 0;
#X connect 36 1 38 0;
#X connect 37 0 11 1;
#X connect 38 0 71 0;
#X connect 39 0 11 0;
#X connect 40 0 41 0;
#X connect 41 0 36 0;
#X connect 41 0 42 0;
#X connect 42 0 11 1;
#X connect 43 0 44 0;
#X connect 44 0 46 0;
#X connect 45 0 53 1;
#X connect 45 0 54 0;
#X connect 46 0 45 0;
#X connect 47 0 48 0;
#X connect 48 0 52 0;
#X connect 50 0 51 0;
#X connect 51 0 53 0;
#X connect 53 0 49 0;
#X connect 54 0 49 0;
#X connect 55 0 67 1;
#X connect 56 0 57 1;
#X connect 58 0 67 0;
#X connect 60 0 61 0;
#X connect 61 0 62 0;
#X connect 62 0 74 0;
#X connect 63 0 69 0;
#X connect 64 0 66 0;
#X connect 66 0 63 1;
#X connect 67 0 59 0;
#X connect 69 0 61 0;
#X connect 70 0 63 0;
#X connect 72 0 73 0;
#X connect 73 0 75 0;
#X connect 74 0 76 0;
#X connect 75 0 74 0;
#X connect 75 1 74 1;
