#N canvas 292 130 1057 718 10;
#X obj 262 125 >= 0;
#X obj 326 125 abs;
#X obj 326 152 * 255;
#X obj 443 117 hradio 50 1 0 2 empty empty Motor 0 -8 0 10 -262144
-1 -1 0;
#X obj 302 252 +;
#X obj 302 284 +;
#X obj 317 229 t b f;
#X obj 443 236 t b f;
#X msg 412 588 close;
#X msg 265 69 0;
#X obj 939 421 bng 50 250 50 0 Stop empty Stop 17 7 0 10 -258113 -1
-1;
#X obj 265 46 r Stop;
#X obj 689 123 >= 0;
#X obj 733 172 int;
#X obj 733 123 abs;
#X obj 733 146 * 255;
#X obj 839 139 hradio 50 1 1 2 empty empty Motor 0 -8 0 10 -262144
-1 -1 1;
#X obj 689 276 +;
#X obj 689 306 +;
#X obj 733 243 t b f;
#X obj 839 254 t b f;
#X msg 699 73 0;
#X obj 699 49 r Stop;
#X obj 840 82 loadbang;
#X msg 840 105 1;
#X floatatom 941 327 5 0 0 0 - - -, f 5;
#X obj 941 302 key;
#X obj 941 346 == 32;
#X floatatom 941 368 5 0 0 0 - - -, f 5;
#X obj 941 387 moses 1;
#X obj 262 174 << 5;
#X obj 689 172 << 5;
#X obj 326 178 >> 3;
#X obj 733 195 >> 3;
#X obj 839 228 << 6;
#X obj 443 210 << 6;
#X obj 689 328 + 128;
#X obj 776 363 tgl 32 0 empty empty Kicker! 17 7 0 10 -262144 -1 -1
1 1;
#X obj 671 418 i;
#X obj 234 428 bng 150 250 50 0 reconnect empty Connect 17 7 0 10 -262144
-1 -1;
#X obj 412 428 bng 150 250 50 0 empty empty Disconnect 17 7 0 10 -262144
-1 -1;
#X obj 252 22 r left_speed;
#X obj 689 25 r right_speed;
#X obj 776 336 r kick;
#N canvas 97 255 518 365 deadzone 0;
#X obj 39 78 inlet;
#X obj 39 161 outlet;
#X obj 39 132 clip -1 1;
#X text 83 38 Offsets are for Boris \, Left motor;
#X obj 406 63 inlet;
#X obj 39 105 expr if($f1 > 0 \, $f1 + $f2 \, if($f1 < 0 \, $f1 - $f2
\, 0));
#X connect 0 0 5 0;
#X connect 2 0 1 0;
#X connect 4 0 5 1;
#X connect 5 0 2 0;
#X restore 252 99 pd deadzone;
#N canvas 669 286 450 300 deadzone 0;
#X obj 15 15 inlet;
#X obj 7 200 outlet;
#X text 107 23 Boris \, Right motor;
#X text 149 119 TODO: why 0.8 and not 1.0?;
#X obj 42 117 clip -1 1;
#X obj 388 43 inlet;
#X obj 27 94 expr if($f1 > 0 \, $f1 + $f2 \, if($f1 < 0 \, $f1 - $f2
\, 0));
#X connect 0 0 6 0;
#X connect 4 0 1 0;
#X connect 5 0 6 1;
#X connect 6 0 4 0;
#X restore 689 98 pd deadzone;
#N canvas 996 425 450 300 deadzone 0;
#X floatatom 460 180 5 0 0 0 - - -, f 5;
#X floatatom 459 107 5 0 0 0 - - -, f 5;
#X obj 433 52 inlet;
#X obj 425 237 outlet;
#X obj 460 154 clip -0.8 0.8;
#X obj 445 131 expr if($f1 > 0 \, $f1 + 0.5 \, if($f1 < 0 \, $f1 -
0.5 \, 0));
#X connect 0 0 3 0;
#X connect 1 0 5 0;
#X connect 2 0 1 0;
#X connect 4 0 0 0;
#X connect 5 0 4 0;
#X restore 689 98 pd deadzone;
#X obj 262 150 tgl 15 0 empty empty empty 17 7 0 10 -262144 -1 -1 1
1;
#X obj 689 147 tgl 15 0 empty empty empty 17 7 0 10 -262144 -1 -1 1
1;
#X obj 99 552 r motor_device;
#X obj 412 627 comport 0 115200;
#X text 537 626 WARNING: port 0 is not necessarily the right one!,
f 20;
#X text 97 461 Input from bot-specific control patch (to set the motor
control serial port):, f 17;
#X obj 412 404 loadbang;
#X obj 479 60 hsl 130 15 -1 1 0 0 empty empty empty -2 -8 0 10 -262144
-1 -1 6450 1;
#X msg 476 37 0;
#X obj 476 15 r Stop;
#X obj 302 307 + 128;
#X obj 604 576 clip 0 255;
#N canvas 0 52 612 237 unpack_bits 0;
#X floatatom 283 59 5 0 0 0 - - -, f 5;
#X obj 506 104 % 2;
#X floatatom 506 126 5 0 0 0 - - -, f 5;
#X obj 526 183 tgl 15 0 empty empty empty 17 7 0 10 -262144 -1 -1 0
1;
#X floatatom 447 152 5 0 0 0 - - -, f 5;
#X obj 468 184 tgl 15 0 empty empty empty 17 7 0 10 -262144 -1 -1 0
1;
#X obj 445 105 % 4;
#X obj 445 127 >= 2;
#X floatatom 381 154 5 0 0 0 - - -, f 5;
#X obj 402 186 tgl 15 0 empty empty empty 17 7 0 10 -262144 -1 -1 0
1;
#X obj 379 107 % 8;
#X obj 379 129 >= 4;
#X floatatom 313 153 5 0 0 0 - - -, f 5;
#X obj 334 185 tgl 15 0 empty empty empty 17 7 0 10 -262144 -1 -1 0
1;
#X obj 311 106 % 16;
#X obj 311 128 >= 8;
#X floatatom 245 150 5 0 0 0 - - -, f 5;
#X obj 270 187 tgl 15 0 empty empty empty 17 7 0 10 -262144 -1 -1 0
1;
#X floatatom 186 152 5 0 0 0 - - -, f 5;
#X obj 207 184 tgl 15 0 empty empty empty 17 7 0 10 -262144 -1 -1 0
1;
#X floatatom 120 154 5 0 0 0 - - -, f 5;
#X obj 141 186 tgl 15 0 empty empty empty 17 7 0 10 -262144 -1 -1 0
1;
#X floatatom 52 153 5 0 0 0 - - -, f 5;
#X obj 73 185 tgl 15 0 empty empty empty 17 7 0 10 -262144 -1 -1 0
1;
#X obj 247 130 >= 16;
#X obj 247 108 % 32;
#X obj 184 105 % 64;
#X obj 118 107 % 128;
#X obj 50 106 % 256;
#X obj 50 128 >= 128;
#X obj 118 129 >= 64;
#X obj 184 127 >= 32;
#X obj 283 29 inlet;
#X connect 0 0 1 0;
#X connect 0 0 6 0;
#X connect 0 0 10 0;
#X connect 0 0 14 0;
#X connect 0 0 25 0;
#X connect 0 0 26 0;
#X connect 0 0 27 0;
#X connect 0 0 28 0;
#X connect 1 0 2 0;
#X connect 2 0 3 0;
#X connect 4 0 5 0;
#X connect 6 0 7 0;
#X connect 7 0 4 0;
#X connect 8 0 9 0;
#X connect 10 0 11 0;
#X connect 11 0 8 0;
#X connect 12 0 13 0;
#X connect 14 0 15 0;
#X connect 15 0 12 0;
#X connect 16 0 17 0;
#X connect 18 0 19 0;
#X connect 20 0 21 0;
#X connect 22 0 23 0;
#X connect 24 0 16 0;
#X connect 25 0 24 0;
#X connect 26 0 31 0;
#X connect 27 0 30 0;
#X connect 28 0 29 0;
#X connect 29 0 22 0;
#X connect 30 0 20 0;
#X connect 31 0 18 0;
#X connect 32 0 0 0;
#X restore 755 599 pd unpack_bits;
#X obj 326 45 r deadzone_thres;
#X obj 763 49 r deadzone_thres;
#X floatatom 70 239 5 0 0 0 - - -, f 5;
#X obj 70 258 s deadzone_thres;
#X obj 70 102 hcs/hostname;
#X obj 70 84 bng 15 250 50 0 empty empty empty 17 7 0 10 -262144 -1
-1;
#X obj 70 143 route Shutter Boris;
#X obj 70 163 bng 15 250 50 0 empty empty Shutter 17 7 0 10 -262144
-1 -1;
#X obj 135 163 bng 15 250 50 0 empty empty Boris 17 7 0 10 -262144
-1 -1;
#X msg 70 124 \$1;
#X obj 47 191 send hostname;
#X obj 70 63 loadbang;
#X floatatom 135 239 5 0 0 0 - - -, f 5;
#X text 56 30 Which robot are we?;
#X text 52 293 TODO: consider refactoring the com port conditional
stuff to use this as well., f 17;
#X msg 70 218 0.33;
#X msg 135 217 0.4;
#X connect 0 0 47 0;
#X connect 1 0 2 0;
#X connect 2 0 32 0;
#X connect 3 0 35 0;
#X connect 4 0 5 0;
#X connect 5 0 57 0;
#X connect 6 0 4 0;
#X connect 6 1 4 1;
#X connect 7 0 5 0;
#X connect 7 1 5 1;
#X connect 8 0 50 0;
#X connect 9 0 44 0;
#X connect 11 0 9 0;
#X connect 12 0 48 0;
#X connect 13 0 33 0;
#X connect 14 0 15 0;
#X connect 15 0 13 0;
#X connect 16 0 34 0;
#X connect 17 0 18 0;
#X connect 18 0 36 0;
#X connect 19 0 17 0;
#X connect 19 1 17 1;
#X connect 20 0 18 0;
#X connect 20 1 18 1;
#X connect 21 0 45 0;
#X connect 22 0 21 0;
#X connect 23 0 24 0;
#X connect 24 0 16 0;
#X connect 25 0 27 0;
#X connect 26 0 25 0;
#X connect 27 0 28 0;
#X connect 28 0 29 0;
#X connect 29 1 10 0;
#X connect 30 0 4 0;
#X connect 31 0 17 0;
#X connect 32 0 6 0;
#X connect 33 0 19 0;
#X connect 34 0 20 0;
#X connect 35 0 7 0;
#X connect 36 0 38 0;
#X connect 37 0 38 0;
#X connect 38 0 58 0;
#X connect 40 0 8 0;
#X connect 41 0 44 0;
#X connect 42 0 45 0;
#X connect 43 0 37 0;
#X connect 44 0 0 0;
#X connect 44 0 1 0;
#X connect 45 0 12 0;
#X connect 45 0 14 0;
#X connect 47 0 30 0;
#X connect 48 0 31 0;
#X connect 49 0 50 0;
#X connect 53 0 40 0;
#X connect 54 0 44 0;
#X connect 54 0 45 0;
#X connect 55 0 54 0;
#X connect 56 0 55 0;
#X connect 57 0 38 0;
#X connect 58 0 50 0;
#X connect 60 0 44 1;
#X connect 61 0 45 1;
#X connect 62 0 63 0;
#X connect 64 0 69 0;
#X connect 65 0 64 0;
#X connect 66 0 67 0;
#X connect 66 1 68 0;
#X connect 67 0 75 0;
#X connect 68 0 76 0;
#X connect 69 0 66 0;
#X connect 69 0 70 0;
#X connect 71 0 65 0;
#X connect 72 0 63 0;
#X connect 75 0 62 0;
#X connect 76 0 72 0;
