#N canvas 102 51 893 540 10;
#X obj 243 69 hsl 260 15 -1 1 0 0 empty empty empty -2 -8 0 10 -262144
-1 -1 12950 1;
#X obj 262 119 >= 0;
#X floatatom 270 236 5 0 0 0 Direction - -, f 5;
#X floatatom 363 122 5 0 0 0 - - -, f 5;
#X obj 363 160 abs;
#X obj 362 201 * 255;
#X floatatom 361 283 5 0 0 0 Speed - -, f 5;
#X floatatom 1099 746 5 0 0 0 - - -, f 5;
#X obj 1322 791 % 2;
#X floatatom 1322 813 5 0 0 0 - - -, f 5;
#X obj 1342 870 tgl 15 0 empty empty empty 17 7 0 10 -262144 -1 -1
0 1;
#X floatatom 1263 839 5 0 0 0 - - -, f 5;
#X obj 1284 871 tgl 15 0 empty empty empty 17 7 0 10 -262144 -1 -1
0 1;
#X obj 1261 792 % 4;
#X obj 1261 814 >= 2;
#X floatatom 1197 841 5 0 0 0 - - -, f 5;
#X obj 1218 873 tgl 15 0 empty empty empty 17 7 0 10 -262144 -1 -1
0 1;
#X obj 1195 794 % 8;
#X obj 1195 816 >= 4;
#X floatatom 1129 840 5 0 0 0 - - -, f 5;
#X obj 1150 872 tgl 15 0 empty empty empty 17 7 0 10 -262144 -1 -1
0 1;
#X obj 1127 793 % 16;
#X obj 1127 815 >= 8;
#X floatatom 1061 837 5 0 0 0 - - -, f 5;
#X obj 1086 874 tgl 15 0 empty empty empty 17 7 0 10 -262144 -1 -1
0 1;
#X floatatom 1002 839 5 0 0 0 - - -, f 5;
#X obj 1023 871 tgl 15 0 empty empty empty 17 7 0 10 -262144 -1 -1
0 1;
#X floatatom 936 841 5 0 0 0 - - -, f 5;
#X obj 957 873 tgl 15 0 empty empty empty 17 7 0 10 -262144 -1 -1 0
1;
#X floatatom 868 840 5 0 0 0 - - -, f 5;
#X obj 889 872 tgl 15 0 empty empty empty 17 7 0 10 -262144 -1 -1 0
1;
#X obj 1063 817 >= 16;
#X obj 1063 795 % 32;
#X obj 1000 792 % 64;
#X obj 934 794 % 128;
#X obj 866 793 % 256;
#X obj 866 815 >= 128;
#X obj 934 816 >= 64;
#X obj 1000 814 >= 32;
#X obj 532 45 hradio 50 1 0 2 empty empty Motor 0 -8 0 10 -262144 -1
-1 0;
#X floatatom 507 344 5 0 0 0 - - -, f 5;
#X obj 325 372 +;
#X obj 341 416 +;
#X obj 340 339 t b f;
#X obj 507 374 t b f;
#X msg 599 843 close;
#X msg 266 47 0;
#X obj 1388 456 bng 500 250 50 0 Stop empty Stop 17 7 0 10 -258113
-1 -1;
#X obj 345 29 r Stop;
#X obj 1044 139 hsl 260 15 -1 1 0 0 empty empty empty -2 -8 0 10 -262144
-1 -1 12950 1;
#X obj 1044 184 >= 0;
#X floatatom 1056 294 5 0 0 0 Direction - -, f 5;
#X obj 1150 302 int;
#X floatatom 1144 182 5 0 0 0 - - -, f 5;
#X obj 1149 218 abs;
#X obj 1148 259 * 255;
#X floatatom 1154 349 5 0 0 0 - - -, f 5;
#X floatatom 1157 442 5 0 0 0 Speed - -, f 5;
#X obj 1435 100 hradio 50 1 1 2 empty empty Motor 0 -8 0 10 -262144
-1 -1 1;
#X floatatom 1398 188 5 0 0 0 - - -, f 5;
#X obj 1144 518 +;
#X obj 1147 561 +;
#X obj 1159 485 t b f;
#X obj 1311 485 t b f;
#X msg 1161 109 0;
#X obj 1211 85 r Stop;
#X obj 1432 42 loadbang;
#X msg 1436 62 1;
#X floatatom 1390 326 5 0 0 0 - - -, f 5;
#X obj 1389 299 key;
#X obj 1390 345 == 32;
#X floatatom 1390 367 5 0 0 0 - - -, f 5;
#X obj 1390 386 moses 1;
#X obj 266 197 << 5;
#X obj 1052 255 << 5;
#X obj 361 255 >> 3;
#X obj 1157 394 >> 3;
#X obj 1398 166 << 6;
#X obj 506 322 << 6;
#X obj 1147 583 + 128;
#X obj 59 370 tgl 200 0 empty empty Kicker! 17 7 0 10 -262144 -1 -1
0 1;
#X obj 963 702 i;
#X obj 421 683 bng 150 250 50 0 reconnect empty Connect 17 7 0 10 -262144
-1 -1;
#X obj 599 683 bng 150 250 50 0 empty empty Disconnect 17 7 0 10 -262144
-1 -1;
#X obj 136 21 r left_speed;
#X obj 1041 109 r right_speed;
#X obj 59 343 r kick;
#X floatatom 200 90 5 0 0 0 - - -, f 5;
#N canvas 386 236 450 300 deadzone 0;
#X obj 39 78 inlet;
#X obj 39 161 outlet;
#X obj 39 132 clip -1 1;
#X obj 39 105 expr if($f1 > 0 \, $f1 + 0.75 \, if($f1 < 0 \, $f1 -
0.75 \, 0));
#X text 83 38 Offsets are for Boris \, Left motor;
#X connect 0 0 3 0;
#X connect 2 0 1 0;
#X connect 3 0 2 0;
#X restore 299 92 pd deadzone;
#N canvas 543 294 450 300 deadzone 0;
#X obj 15 15 inlet;
#X obj 7 200 outlet;
#X obj 42 117 clip -0.8 0.8;
#X obj 27 94 expr if($f1 > 0 \, $f1 + 0.6 \, if($f1 < 0 \, $f1 - 0.6
\, 0));
#X text 107 23 Boris \, Right motor;
#X text 149 119 TODO: why 0.8 and not 1.0?;
#X connect 0 0 3 0;
#X connect 2 0 1 0;
#X connect 3 0 2 0;
#X restore 1041 159 pd deadzone;
#N canvas 996 425 450 300 deadzone 0;
#X floatatom 460 180 5 0 0 0 - - -, f 5;
#X floatatom 459 107 5 0 0 0 - - -, f 5;
#X obj 433 52 inlet;
#X obj 425 237 outlet;
#X obj 460 154 clip -0.8 0.8;
#X obj 445 131 expr if($f1 > 0 \, $f1 + 0.5 \, if($f1 < 0 \, $f1 -
0.5 \, 0));
#X connect 0 0 3 0;
#X connect 1 0 5 0;
#X connect 2 0 1 0;
#X connect 4 0 0 0;
#X connect 5 0 4 0;
#X restore 1041 159 pd deadzone;
#X obj 211 158 tgl 15 0 empty empty empty 17 7 0 10 -262144 -1 -1 1
1;
#X obj 1044 218 tgl 15 0 empty empty empty 17 7 0 10 -262144 -1 -1
1 1;
#X obj 213 865 r motor_device;
#X obj 651 910 comport 0 115200;
#X text 776 909 WARNING: port 0 is not necessarily the right one!,
f 20;
#X text 211 774 Input from bot-specific control patch (to set the motor
control serial port):, f 17;
#X obj 599 659 loadbang;
#X obj 699 51 hsl 260 15 -1 1 0 0 empty empty empty -2 -8 0 10 -262144
-1 -1 12950 1;
#X msg 662 26 0;
#X obj 741 8 r Stop;
#X obj 214 891 print;
#X floatatom 922 260 5 0 0 0 - - -, f 5;
#X obj 287 444 print;
#X obj 339 443 + 128;
#X floatatom 726 334 5 0 0 0 - - -, f 5;
#X obj 728 370 + 128;
#X floatatom 728 392 5 0 0 0 - - -, f 5;
#X floatatom 341 477 5 0 0 0 - - -, f 5;
#X floatatom 396 426 5 0 0 0 - - -, f 5;
#X obj 862 734 clip 0 255;
#X obj 931 521 cyclone/counter;
#X floatatom 931 543 5 0 0 0 - - -, f 5;
#X obj 925 471 moses 1;
#X obj 921 496 bng 15 250 50 0 empty empty empty 17 7 0 10 -262144
-1 -1;
#X obj 1011 465 bng 15 250 50 0 empty empty reset 17 7 0 10 -262144
-1 -1;
#X connect 0 0 87 0;
#X connect 0 0 88 0;
#X connect 1 0 91 0;
#X connect 2 0 41 0;
#X connect 3 0 4 0;
#X connect 4 0 5 0;
#X connect 5 0 75 0;
#X connect 6 0 43 0;
#X connect 7 0 8 0;
#X connect 7 0 13 0;
#X connect 7 0 17 0;
#X connect 7 0 21 0;
#X connect 7 0 32 0;
#X connect 7 0 33 0;
#X connect 7 0 34 0;
#X connect 7 0 35 0;
#X connect 8 0 9 0;
#X connect 9 0 10 0;
#X connect 11 0 12 0;
#X connect 13 0 14 0;
#X connect 14 0 11 0;
#X connect 15 0 16 0;
#X connect 17 0 18 0;
#X connect 18 0 15 0;
#X connect 19 0 20 0;
#X connect 21 0 22 0;
#X connect 22 0 19 0;
#X connect 23 0 24 0;
#X connect 25 0 26 0;
#X connect 27 0 28 0;
#X connect 29 0 30 0;
#X connect 30 0 113 0;
#X connect 31 0 23 0;
#X connect 32 0 31 0;
#X connect 33 0 38 0;
#X connect 34 0 37 0;
#X connect 35 0 36 0;
#X connect 36 0 29 0;
#X connect 37 0 27 0;
#X connect 38 0 25 0;
#X connect 39 0 78 0;
#X connect 40 0 44 0;
#X connect 41 0 42 0;
#X connect 42 0 103 0;
#X connect 42 0 109 0;
#X connect 43 0 41 0;
#X connect 43 1 41 1;
#X connect 44 0 42 0;
#X connect 44 1 42 1;
#X connect 45 0 94 0;
#X connect 46 0 0 0;
#X connect 48 0 46 0;
#X connect 49 0 89 0;
#X connect 50 0 92 0;
#X connect 51 0 60 0;
#X connect 52 0 56 0;
#X connect 53 0 54 0;
#X connect 54 0 55 0;
#X connect 55 0 52 0;
#X connect 56 0 76 0;
#X connect 57 0 62 0;
#X connect 58 0 77 0;
#X connect 59 0 63 0;
#X connect 60 0 61 0;
#X connect 61 0 79 0;
#X connect 62 0 60 0;
#X connect 62 1 60 1;
#X connect 63 0 61 0;
#X connect 63 1 61 1;
#X connect 64 0 49 0;
#X connect 65 0 64 0;
#X connect 66 0 67 0;
#X connect 67 0 58 0;
#X connect 68 0 70 0;
#X connect 69 0 68 0;
#X connect 70 0 71 0;
#X connect 71 0 72 0;
#X connect 72 1 47 0;
#X connect 73 0 2 0;
#X connect 74 0 51 0;
#X connect 75 0 6 0;
#X connect 76 0 57 0;
#X connect 77 0 59 0;
#X connect 78 0 40 0;
#X connect 79 0 81 0;
#X connect 80 0 81 0;
#X connect 81 0 7 0;
#X connect 81 0 110 0;
#X connect 83 0 45 0;
#X connect 84 0 0 0;
#X connect 85 0 49 0;
#X connect 85 0 102 0;
#X connect 86 0 80 0;
#X connect 88 0 1 0;
#X connect 88 0 3 0;
#X connect 89 0 50 0;
#X connect 89 0 53 0;
#X connect 91 0 73 0;
#X connect 92 0 74 0;
#X connect 93 0 94 0;
#X connect 93 0 101 0;
#X connect 97 0 83 0;
#X connect 98 0 49 0;
#X connect 98 0 0 0;
#X connect 99 0 98 0;
#X connect 100 0 99 0;
#X connect 104 0 108 0;
#X connect 105 0 106 0;
#X connect 106 0 107 0;
#X connect 108 0 81 0;
#X connect 109 0 104 0;
#X connect 110 0 94 0;
#X connect 111 0 112 0;
#X connect 113 0 114 0;
#X connect 114 0 111 0;
#X connect 115 0 111 3;
