#N canvas 6 244 1905 986 10;
#X floatatom 263 149 5 0 0 0 - - -, f 5;
#X obj 258 84 hsl 260 15 -1 1 0 0 empty empty empty -2 -8 0 10 -262144
-1 -1 12950 1;
#X obj 262 119 >= 0;
#X obj 266 197 << 6;
#X floatatom 270 236 5 0 0 0 Direction - -, f 5;
#X obj 364 244 int;
#X floatatom 358 124 5 0 0 0 - - -, f 5;
#X obj 363 160 abs;
#X obj 362 201 * 255;
#X floatatom 368 291 5 0 0 0 - - -, f 5;
#X obj 371 337 >> 2;
#X floatatom 371 384 5 0 0 0 Speed - -, f 5;
#X floatatom 351 601 5 0 0 0 - - -, f 5;
#X obj 570 660 % 2;
#X floatatom 570 682 5 0 0 0 - - -, f 5;
#X obj 590 739 tgl 15 0 empty empty empty 17 7 0 10 -262144 -1 -1 0
1;
#X floatatom 511 708 5 0 0 0 - - -, f 5;
#X obj 532 740 tgl 15 0 empty empty empty 17 7 0 10 -262144 -1 -1 0
1;
#X obj 509 661 % 4;
#X obj 509 683 >= 2;
#X floatatom 445 710 5 0 0 0 - - -, f 5;
#X obj 466 742 tgl 15 0 empty empty empty 17 7 0 10 -262144 -1 -1 0
1;
#X obj 443 663 % 8;
#X obj 443 685 >= 4;
#X floatatom 377 709 5 0 0 0 - - -, f 5;
#X obj 398 741 tgl 15 0 empty empty empty 17 7 0 10 -262144 -1 -1 0
1;
#X obj 375 662 % 16;
#X obj 375 684 >= 8;
#X floatatom 309 706 5 0 0 0 - - -, f 5;
#X obj 334 743 tgl 15 0 empty empty empty 17 7 0 10 -262144 -1 -1 0
1;
#X floatatom 250 708 5 0 0 0 - - -, f 5;
#X obj 271 740 tgl 15 0 empty empty empty 17 7 0 10 -262144 -1 -1 0
1;
#X floatatom 184 710 5 0 0 0 - - -, f 5;
#X obj 205 742 tgl 15 0 empty empty empty 17 7 0 10 -262144 -1 -1 1
1;
#X floatatom 116 709 5 0 0 0 - - -, f 5;
#X obj 137 741 tgl 15 0 empty empty empty 17 7 0 10 -262144 -1 -1 0
1;
#X obj 311 686 >= 16;
#X obj 311 664 % 32;
#X obj 248 661 % 64;
#X obj 182 663 % 128;
#X obj 114 662 % 256;
#X obj 114 684 >= 128;
#X obj 182 685 >= 64;
#X obj 248 683 >= 32;
#X obj 649 42 hradio 50 1 0 2 empty empty Motor 0 -8 0 10 -262144 -1
-1 0;
#X obj 612 108 << 7;
#X floatatom 612 130 5 0 0 0 - - -, f 5;
#X obj 358 460 +;
#X obj 361 503 +;
#X obj 373 427 t b f;
#X obj 525 427 t b f;
#X msg 922 291 close;
#X msg 835 290 open 0, f 7;
#X msg 375 51 0;
#X obj 1388 456 bng 500 250 50 0 Stop empty Stop 17 7 0 10 -258113
-1 -1;
#X obj 425 27 r Stop;
#X floatatom 1049 207 5 0 0 0 - - -, f 5;
#X obj 1044 139 hsl 260 15 -1 1 0 0 empty empty empty -2 -8 0 10 -262144
-1 -1 12950 1;
#X obj 1048 177 >= 0;
#X obj 1052 255 << 6;
#X floatatom 1056 294 5 0 0 0 Direction - -, f 5;
#X obj 1150 302 int;
#X floatatom 1144 182 5 0 0 0 - - -, f 5;
#X obj 1149 218 abs;
#X obj 1148 259 * 255;
#X floatatom 1154 349 5 0 0 0 - - -, f 5;
#X obj 1157 395 >> 2;
#X floatatom 1157 442 5 0 0 0 Speed - -, f 5;
#X obj 1435 100 hradio 50 1 1 2 empty empty Motor 0 -8 0 10 -262144
-1 -1 1;
#X obj 1398 166 << 7;
#X floatatom 1398 188 5 0 0 0 - - -, f 5;
#X obj 1144 518 +;
#X obj 1147 561 +;
#X obj 1159 485 t b f;
#X obj 1311 485 t b f;
#X msg 1161 109 0;
#X obj 1211 85 r Stop;
#X obj 1432 42 loadbang;
#X msg 1436 62 1;
#X floatatom 1390 326 5 0 0 0 - - -, f 5;
#X obj 1389 299 key;
#X obj 1390 345 == 32;
#X floatatom 1390 367 5 0 0 0 - - -, f 5;
#X obj 1390 386 moses 1;
#X obj 882 696 hid;
#X obj 219 42 r left;
#X obj 1029 98 r right;
#X obj 799 594 comport 0 19200;
#X connect 0 0 3 0;
#X connect 1 0 2 0;
#X connect 1 0 6 0;
#X connect 2 0 0 0;
#X connect 3 0 4 0;
#X connect 4 0 47 0;
#X connect 5 0 9 0;
#X connect 6 0 7 0;
#X connect 7 0 8 0;
#X connect 8 0 5 0;
#X connect 9 0 10 0;
#X connect 10 0 11 0;
#X connect 11 0 49 0;
#X connect 12 0 13 0;
#X connect 12 0 18 0;
#X connect 12 0 22 0;
#X connect 12 0 26 0;
#X connect 12 0 37 0;
#X connect 12 0 38 0;
#X connect 12 0 39 0;
#X connect 12 0 40 0;
#X connect 13 0 14 0;
#X connect 14 0 15 0;
#X connect 16 0 17 0;
#X connect 18 0 19 0;
#X connect 19 0 16 0;
#X connect 20 0 21 0;
#X connect 22 0 23 0;
#X connect 23 0 20 0;
#X connect 24 0 25 0;
#X connect 26 0 27 0;
#X connect 27 0 24 0;
#X connect 28 0 29 0;
#X connect 30 0 31 0;
#X connect 32 0 33 0;
#X connect 34 0 35 0;
#X connect 36 0 28 0;
#X connect 37 0 36 0;
#X connect 38 0 43 0;
#X connect 39 0 42 0;
#X connect 40 0 41 0;
#X connect 41 0 34 0;
#X connect 42 0 32 0;
#X connect 43 0 30 0;
#X connect 44 0 45 0;
#X connect 45 0 46 0;
#X connect 46 0 50 0;
#X connect 47 0 48 0;
#X connect 48 0 12 0;
#X connect 48 0 87 0;
#X connect 49 0 47 0;
#X connect 49 1 47 1;
#X connect 50 0 48 0;
#X connect 50 1 48 1;
#X connect 51 0 87 0;
#X connect 52 0 87 0;
#X connect 53 0 1 0;
#X connect 55 0 53 0;
#X connect 56 0 59 0;
#X connect 57 0 58 0;
#X connect 57 0 62 0;
#X connect 58 0 56 0;
#X connect 59 0 60 0;
#X connect 60 0 71 0;
#X connect 61 0 65 0;
#X connect 62 0 63 0;
#X connect 63 0 64 0;
#X connect 64 0 61 0;
#X connect 65 0 66 0;
#X connect 66 0 67 0;
#X connect 67 0 73 0;
#X connect 68 0 69 0;
#X connect 69 0 70 0;
#X connect 70 0 74 0;
#X connect 71 0 72 0;
#X connect 72 0 87 0;
#X connect 73 0 71 0;
#X connect 73 1 71 1;
#X connect 74 0 72 0;
#X connect 74 1 72 1;
#X connect 75 0 57 0;
#X connect 76 0 75 0;
#X connect 77 0 78 0;
#X connect 78 0 68 0;
#X connect 79 0 81 0;
#X connect 80 0 79 0;
#X connect 81 0 82 0;
#X connect 82 0 83 0;
#X connect 83 1 54 0;
#X connect 85 0 1 0;
#X connect 86 0 57 0;
