#N canvas 48 113 1905 986 10;
#X floatatom 263 149 5 0 0 0 - - -, f 5;
#X obj 243 69 hsl 260 15 -1 1 0 0 empty empty empty -2 -8 0 10 -262144
-1 -1 12874 1;
#X obj 262 119 >= 0;
#X floatatom 270 236 5 0 0 0 Direction - -, f 5;
#X obj 364 244 int;
#X floatatom 358 124 5 0 0 0 - - -, f 5;
#X obj 363 160 abs;
#X obj 362 201 * 255;
#X floatatom 368 291 5 0 0 0 - - -, f 5;
#X floatatom 371 384 5 0 0 0 Speed - -, f 5;
#X floatatom 1023 799 5 0 0 0 - - -, f 5;
#X obj 1246 844 % 2;
#X floatatom 1246 866 5 0 0 0 - - -, f 5;
#X obj 1266 923 tgl 15 0 empty empty empty 17 7 0 10 -262144 -1 -1
0 1;
#X floatatom 1187 892 5 0 0 0 - - -, f 5;
#X obj 1208 924 tgl 15 0 empty empty empty 17 7 0 10 -262144 -1 -1
0 1;
#X obj 1185 845 % 4;
#X obj 1185 867 >= 2;
#X floatatom 1121 894 5 0 0 0 - - -, f 5;
#X obj 1142 926 tgl 15 0 empty empty empty 17 7 0 10 -262144 -1 -1
0 1;
#X obj 1119 847 % 8;
#X obj 1119 869 >= 4;
#X floatatom 1053 893 5 0 0 0 - - -, f 5;
#X obj 1074 925 tgl 15 0 empty empty empty 17 7 0 10 -262144 -1 -1
0 1;
#X obj 1051 846 % 16;
#X obj 1051 868 >= 8;
#X floatatom 985 890 5 0 0 0 - - -, f 5;
#X obj 1010 927 tgl 15 0 empty empty empty 17 7 0 10 -262144 -1 -1
1 1;
#X floatatom 926 892 5 0 0 0 - - -, f 5;
#X obj 947 924 tgl 15 0 empty empty empty 17 7 0 10 -262144 -1 -1 1
1;
#X floatatom 860 894 5 0 0 0 - - -, f 5;
#X obj 881 926 tgl 15 0 empty empty empty 17 7 0 10 -262144 -1 -1 1
1;
#X floatatom 792 893 5 0 0 0 - - -, f 5;
#X obj 813 925 tgl 15 0 empty empty empty 17 7 0 10 -262144 -1 -1 1
1;
#X obj 987 870 >= 16;
#X obj 987 848 % 32;
#X obj 924 845 % 64;
#X obj 858 847 % 128;
#X obj 790 846 % 256;
#X obj 790 868 >= 128;
#X obj 858 869 >= 64;
#X obj 924 867 >= 32;
#X obj 762 245 hradio 50 1 0 2 empty empty Motor 0 -8 0 10 -262144
-1 -1 0;
#X floatatom 725 333 5 0 0 0 - - -, f 5;
#X obj 358 460 +;
#X obj 361 503 +;
#X obj 373 427 t b f;
#X obj 525 427 t b f;
#X msg 675 768 close;
#X msg 662 742 open 0, f 7;
#X msg 375 51 0;
#X obj 1388 456 bng 500 250 50 0 Stop empty Stop 17 7 0 10 -258113
-1 -1;
#X obj 425 27 r Stop;
#X floatatom 1049 207 5 0 0 0 - - -, f 5;
#X obj 1044 139 hsl 260 15 -1 1 0 0 empty empty empty -2 -8 0 10 -262144
-1 -1 13026 1;
#X obj 1044 184 >= 0;
#X floatatom 1056 294 5 0 0 0 Direction - -, f 5;
#X obj 1150 302 int;
#X floatatom 1144 182 5 0 0 0 - - -, f 5;
#X obj 1149 218 abs;
#X obj 1148 259 * 255;
#X floatatom 1154 349 5 0 0 0 - - -, f 5;
#X floatatom 1157 442 5 0 0 0 Speed - -, f 5;
#X obj 1435 100 hradio 50 1 1 2 empty empty Motor 0 -8 0 10 -262144
-1 -1 1;
#X floatatom 1398 188 5 0 0 0 - - -, f 5;
#X obj 1144 518 +;
#X obj 1147 561 +;
#X obj 1159 485 t b f;
#X obj 1311 485 t b f;
#X msg 1161 109 0;
#X obj 1211 85 r Stop;
#X obj 1432 42 loadbang;
#X msg 1436 62 1;
#X floatatom 1390 326 5 0 0 0 - - -, f 5;
#X obj 1389 299 key;
#X obj 1390 345 == 32;
#X floatatom 1390 367 5 0 0 0 - - -, f 5;
#X obj 1390 386 moses 1;
#X obj 266 197 << 5;
#X obj 1052 255 << 5;
#X obj 371 337 >> 3;
#X obj 1157 394 >> 3;
#X obj 1398 166 << 6;
#X obj 724 311 << 6;
#X obj 1147 583 + 128;
#X obj 361 525 + 128;
#X obj 59 370 tgl 200 0 empty empty Kicker! 17 7 0 10 -262144 -1 -1
0 1;
#X obj 975 665 cyclone/speedlim 50;
#X obj 832 665 cyclone/speedlim 50;
#X obj 682 666 cyclone/speedlim 50;
#X obj 789 760 i;
#X obj 662 802 comport 0 115200;
#X obj 211 677 bng 150 250 50 0 empty empty Connect 17 7 0 10 -262144
-1 -1;
#X obj 389 677 bng 150 250 50 0 empty empty Disconnect 17 7 0 10 -262144
-1 -1;
#X obj 116 23 r left_speed;
#X obj 1041 109 r right_speed;
#X obj 59 343 r kick;
#X floatatom 518 304 5 0 0 0 - - -, f 5;
#X obj 518 323 atan;
#X floatatom 518 345 5 0 0 0 - - -, f 5;
#X floatatom 146 98 5 0 0 0 - - -, f 5;
#X obj 557 202 expr;
#N canvas 996 425 450 300 deadzone 0;
#X floatatom 460 180 5 0 0 0 - - -, f 5;
#X floatatom 459 107 5 0 0 0 - - -, f 5;
#X obj 433 52 inlet;
#X obj 425 237 outlet;
#X obj 460 154 clip -0.8 0.8;
#X obj 445 131 expr if($f1 > 0 \, $f1 + 0.5 \, if($f1 < 0 \, $f1 -
0.5 \, 0));
#X connect 0 0 3 0;
#X connect 1 0 5 0;
#X connect 2 0 1 0;
#X connect 4 0 0 0;
#X connect 5 0 4 0;
#X restore 238 93 pd deadzone;
#N canvas 996 425 450 300 deadzone 0;
#X floatatom 460 180 5 0 0 0 - - -, f 5;
#X floatatom 459 107 5 0 0 0 - - -, f 5;
#X obj 433 52 inlet;
#X obj 425 237 outlet;
#X obj 460 154 clip -0.8 0.8;
#X obj 445 131 expr if($f1 > 0 \, $f1 + 0.5 \, if($f1 < 0 \, $f1 -
0.5 \, 0));
#X connect 0 0 3 0;
#X connect 1 0 5 0;
#X connect 2 0 1 0;
#X connect 4 0 0 0;
#X connect 5 0 4 0;
#X restore 238 93 pd deadzone;
#N canvas 996 425 450 300 deadzone 0;
#X floatatom 460 180 5 0 0 0 - - -, f 5;
#X floatatom 459 107 5 0 0 0 - - -, f 5;
#X obj 433 52 inlet;
#X obj 425 237 outlet;
#X obj 460 154 clip -0.8 0.8;
#X obj 445 131 expr if($f1 > 0 \, $f1 + 0.5 \, if($f1 < 0 \, $f1 -
0.5 \, 0));
#X connect 0 0 3 0;
#X connect 1 0 5 0;
#X connect 2 0 1 0;
#X connect 4 0 0 0;
#X connect 5 0 4 0;
#X restore 1041 159 pd deadzone;
#N canvas 996 425 450 300 deadzone 0;
#X floatatom 460 180 5 0 0 0 - - -, f 5;
#X floatatom 459 107 5 0 0 0 - - -, f 5;
#X obj 433 52 inlet;
#X obj 425 237 outlet;
#X obj 460 154 clip -0.8 0.8;
#X obj 445 131 expr if($f1 > 0 \, $f1 + 0.5 \, if($f1 < 0 \, $f1 -
0.5 \, 0));
#X connect 0 0 3 0;
#X connect 1 0 5 0;
#X connect 2 0 1 0;
#X connect 4 0 0 0;
#X connect 5 0 4 0;
#X restore 1041 159 pd deadzone;
#X connect 0 0 78 0;
#X connect 1 0 100 0;
#X connect 1 0 102 0;
#X connect 2 0 0 0;
#X connect 3 0 44 0;
#X connect 4 0 8 0;
#X connect 5 0 6 0;
#X connect 6 0 7 0;
#X connect 7 0 4 0;
#X connect 8 0 80 0;
#X connect 9 0 46 0;
#X connect 10 0 11 0;
#X connect 10 0 16 0;
#X connect 10 0 20 0;
#X connect 10 0 24 0;
#X connect 10 0 35 0;
#X connect 10 0 36 0;
#X connect 10 0 37 0;
#X connect 10 0 38 0;
#X connect 11 0 12 0;
#X connect 12 0 13 0;
#X connect 14 0 15 0;
#X connect 16 0 17 0;
#X connect 17 0 14 0;
#X connect 18 0 19 0;
#X connect 20 0 21 0;
#X connect 21 0 18 0;
#X connect 22 0 23 0;
#X connect 24 0 25 0;
#X connect 25 0 22 0;
#X connect 26 0 27 0;
#X connect 28 0 29 0;
#X connect 30 0 31 0;
#X connect 32 0 33 0;
#X connect 34 0 26 0;
#X connect 35 0 34 0;
#X connect 36 0 41 0;
#X connect 37 0 40 0;
#X connect 38 0 39 0;
#X connect 39 0 32 0;
#X connect 40 0 30 0;
#X connect 41 0 28 0;
#X connect 42 0 83 0;
#X connect 43 0 47 0;
#X connect 44 0 45 0;
#X connect 45 0 85 0;
#X connect 46 0 44 0;
#X connect 46 1 44 1;
#X connect 47 0 45 0;
#X connect 47 1 45 1;
#X connect 48 0 91 0;
#X connect 49 0 91 0;
#X connect 50 0 1 0;
#X connect 52 0 50 0;
#X connect 53 0 79 0;
#X connect 54 0 104 0;
#X connect 55 0 53 0;
#X connect 56 0 65 0;
#X connect 57 0 61 0;
#X connect 58 0 59 0;
#X connect 59 0 60 0;
#X connect 60 0 57 0;
#X connect 61 0 81 0;
#X connect 62 0 67 0;
#X connect 63 0 82 0;
#X connect 64 0 68 0;
#X connect 65 0 66 0;
#X connect 66 0 84 0;
#X connect 67 0 65 0;
#X connect 67 1 65 1;
#X connect 68 0 66 0;
#X connect 68 1 66 1;
#X connect 69 0 54 0;
#X connect 70 0 69 0;
#X connect 71 0 72 0;
#X connect 72 0 63 0;
#X connect 73 0 75 0;
#X connect 74 0 73 0;
#X connect 75 0 76 0;
#X connect 76 0 77 0;
#X connect 77 1 51 0;
#X connect 78 0 3 0;
#X connect 79 0 56 0;
#X connect 80 0 9 0;
#X connect 81 0 62 0;
#X connect 82 0 64 0;
#X connect 83 0 43 0;
#X connect 84 0 87 0;
#X connect 85 0 88 0;
#X connect 86 0 89 0;
#X connect 87 0 90 0;
#X connect 88 0 90 0;
#X connect 89 0 90 0;
#X connect 90 0 10 0;
#X connect 90 0 91 0;
#X connect 92 0 49 0;
#X connect 93 0 48 0;
#X connect 94 0 1 0;
#X connect 95 0 54 0;
#X connect 96 0 86 0;
#X connect 97 0 98 0;
#X connect 98 0 99 0;
#X connect 102 0 2 0;
#X connect 102 0 5 0;
#X connect 104 0 55 0;
#X connect 104 0 58 0;
