#N canvas 23 121 1265 672 10;
#X obj 34 13 netreceive 7000;
#X obj 34 276 s ball_detected;
#X obj 54 231 s ball_angle;
#X obj 75 195 s ball_distance;
#X obj 394 29 netreceive 7001;
#X obj 479 107 s angle2goal;
#X obj 231 445 s compass_heading;
#X obj 95 164 s range;
#X obj 34 77 unpack f f f f f f f f f;
#X obj 238 146 s reflectance;
#X text 230 190 Compass sensor correction:;
#X obj 231 212 expr if($f1 <= 0 \, $f1 \, -5.038 / pow(10 \, 7) * pow($f1
\, 4) + 0.000152 * pow($f1 \, 3) - 0.01 * pow($f1 \, 2) + 0.871 * $f1
+ 0.613), f 27;
#X obj 413 60 moses -179;
#X obj 355 86 != -180;
#X obj 355 108 tgl 15 0 empty empty empty 17 7 0 10 -262144 -1 -1 1
1;
#X obj 355 128 s goal_detected;
#X obj 231 361 wrap;
#X obj 231 310 / 360;
#X obj 231 332 + 0.5;
#X obj 231 405 * 360;
#X obj 231 383 - 0.5;
#X text 215 39 <-- TODO: remove/reduce speedlim before the competition!
, f 23;
#X obj 50 41 cyclone/speedlim 100;
#X obj 424 80 bang;
#X msg 424 102 999;
#X obj 627 40 r compass_heading;
#X obj 780 12 r ball_angle;
#X obj 758 60 t b f;
#X obj 726 103 -;
#X obj 725 150 abs;
#X obj 725 172 < 90;
#X obj 725 195 s ball_side;
#X floatatom 679 200 5 0 0 0 - - -, f 5;
#X floatatom 892 36 5 0 0 0 - - -, f 5;
#X floatatom 624 79 5 0 0 0 - - -, f 5;
#X obj 726 125 expr if($f1 < -180 \, $f1 + 360 \, $f1);
#X obj 779 36 moses 900;
#X connect 0 0 22 0;
#X connect 0 0 8 0;
#X connect 4 0 12 0;
#X connect 4 0 13 0;
#X connect 8 0 1 0;
#X connect 8 1 2 0;
#X connect 8 2 3 0;
#X connect 8 3 7 0;
#X connect 8 5 11 0;
#X connect 8 7 9 0;
#X connect 11 0 17 0;
#X connect 12 0 23 0;
#X connect 12 1 5 0;
#X connect 13 0 14 0;
#X connect 14 0 15 0;
#X connect 16 0 20 0;
#X connect 17 0 18 0;
#X connect 18 0 16 0;
#X connect 19 0 6 0;
#X connect 20 0 19 0;
#X connect 23 0 24 0;
#X connect 24 0 5 0;
#X connect 25 0 28 0;
#X connect 25 0 34 0;
#X connect 26 0 36 0;
#X connect 26 0 33 0;
#X connect 27 0 28 0;
#X connect 27 1 28 1;
#X connect 28 0 35 0;
#X connect 29 0 30 0;
#X connect 30 0 31 0;
#X connect 30 0 32 0;
#X connect 35 0 29 0;
#X connect 36 0 27 0;
