#N canvas 338 138 667 440 10;
#X obj 153 98 netreceive 7000;
#X obj 161 144 unpack f f f f f f f f;
#X obj 169 353 s ball_detected;
#X obj 192 297 s ball_angle;
#X obj 210 262 s ball_distance;
#X floatatom 138 180 5 0 0 0 - - -, f 5;
#X floatatom 135 255 5 0 0 0 - - -, f 5;
#X obj 451 96 netreceive 7001;
#X obj 407 139 print;
#X obj 463 142 hsl 128 15 -30 30 0 0 empty empty empty -2 -8 0 10 -262144
-1 -1 10959 1;
#X obj 469 193 s angle2goal;
#X obj 281 196 s compass_heading;
#X obj 237 231 s range;
#X connect 0 0 1 0;
#X connect 1 0 2 0;
#X connect 1 1 5 0;
#X connect 1 1 3 0;
#X connect 1 2 4 0;
#X connect 1 3 12 0;
#X connect 1 5 11 0;
#X connect 7 0 8 0;
#X connect 7 0 9 0;
#X connect 9 0 10 0;
