#N canvas 295 225 604 532 10;
#X obj 34 13 netreceive 7000;
#X obj 34 276 s ball_detected;
#X obj 54 231 s ball_angle;
#X obj 75 195 s ball_distance;
#X obj 394 29 netreceive 7001;
#X obj 473 87 s angle2goal;
#X obj 231 445 s compass_heading;
#X obj 95 164 s range;
#X obj 34 77 unpack f f f f f f f f f;
#X obj 238 146 s reflectance;
#X text 230 190 Compass sensor correction:;
#X obj 231 212 expr if($f1 <= 0 \, $f1 \, -5.038 / pow(10 \, 7) * pow($f1
\, 4) + 0.000152 * pow($f1 \, 3) - 0.01 * pow($f1 \, 2) + 0.871 * $f1
+ 0.613), f 27;
#X obj 406 58 moses -179;
#X obj 394 87 != -180;
#X obj 394 109 tgl 15 0 empty empty empty 17 7 0 10 -262144 -1 -1 1
1;
#X obj 394 129 s goal_detected;
#X obj 231 361 wrap;
#X obj 231 310 / 360;
#X obj 231 332 + 0.5;
#X obj 231 405 * 360;
#X obj 231 383 - 0.5;
#X text 215 39 <-- TODO: remove/reduce speedlim before the competition!
, f 25;
#X obj 50 41 cyclone/speedlim 100;
#X connect 0 0 22 0;
#X connect 0 0 8 0;
#X connect 4 0 12 0;
#X connect 4 0 13 0;
#X connect 8 0 1 0;
#X connect 8 1 2 0;
#X connect 8 2 3 0;
#X connect 8 3 7 0;
#X connect 8 5 11 0;
#X connect 8 7 9 0;
#X connect 11 0 17 0;
#X connect 12 1 5 0;
#X connect 13 0 14 0;
#X connect 14 0 15 0;
#X connect 16 0 20 0;
#X connect 17 0 18 0;
#X connect 18 0 16 0;
#X connect 19 0 6 0;
#X connect 20 0 19 0;
