#N canvas 69 53 1531 971 10;
#X obj 40 13 netreceive 7000;
#X obj 44 286 s ball_detected;
#X obj 65 230 s ball_angle;
#X obj 87 195 s ball_distance;
#X obj 334 29 netreceive 7001;
#X obj 365 67 s angle2goal;
#X obj 285 485 s compass_heading;
#X obj 108 164 s range;
#X obj 44 77 unpack f f f f f f f f f;
#X obj 305 125 s reflectance;
#X obj 40 41 cyclone/speedlim 150;
#X text 290 170 Compass sensor correction:;
#X text 177 8 TODO: remove/reduce speedlim before the competition!
;
#X obj 501 189 expr 4e-06 * $f1 ** 4 - 0.0011 * $f1 ** 3 + 0.0821 *
$f1 ** 2 - 0.2148 * $f1 + 0.5274;
#X obj 589 322 expr;
#X obj 291 192 expr if($f1 <= 0 \, $f1 \, -5.038 / pow(10 \, 7) * pow($f1
\, 4) + 0.000152 * pow($f1 \, 3) - 0.01 * pow($f1 \, 2) + 0.871 * $f1
+ 0.613), f 27;
#X obj 376 48 moses -179;
#X floatatom 467 61 5 0 0 0 - - -, f 5;
#X obj 292 48 != -180;
#X obj 293 70 tgl 15 0 empty empty empty 17 7 0 10 -262144 -1 -1 0
1;
#X obj 293 90 s goal_detected;
#X obj 311 381 wrap;
#X obj 311 330 / 360;
#X obj 311 352 + 0.5;
#X obj 311 425 * 360;
#X obj 311 403 - 0.5;
#X connect 0 0 10 0;
#X connect 4 0 16 0;
#X connect 4 0 18 0;
#X connect 8 0 1 0;
#X connect 8 1 2 0;
#X connect 8 2 3 0;
#X connect 8 3 7 0;
#X connect 8 5 15 0;
#X connect 8 7 9 0;
#X connect 10 0 8 0;
#X connect 15 0 22 0;
#X connect 16 1 5 0;
#X connect 16 1 17 0;
#X connect 18 0 19 0;
#X connect 19 0 20 0;
#X connect 21 0 25 0;
#X connect 22 0 23 0;
#X connect 23 0 21 0;
#X connect 24 0 6 0;
#X connect 25 0 24 0;
