#N canvas 18 74 1265 628 10;
#X obj 34 13 netreceive 7000;
#X obj 34 276 s ball_detected;
#X obj 54 231 s ball_angle;
#X obj 75 195 s ball_distance;
#X obj 432 442 netreceive 7001;
#X obj 618 448 s angle2goal;
#X obj 231 445 s compass_heading;
#X obj 203 138 s reflectance;
#X text 230 190 Compass sensor correction:;
#X obj 231 212 expr if($f1 <= 0 \, $f1 \, -5.038 / pow(10 \, 7) * pow($f1
\, 4) + 0.000152 * pow($f1 \, 3) - 0.01 * pow($f1 \, 2) + 0.871 * $f1
+ 0.613), f 27;
#X obj 538 387 moses -179;
#X obj 231 361 wrap;
#X obj 231 310 / 360;
#X obj 231 332 + 0.5;
#X obj 231 405 * 360;
#X obj 231 383 - 0.5;
#X text 195 5 <-- TODO: remove/reduce speedlim before the competition!
, f 23;
#X obj 50 41 cyclone/speedlim 100;
#X obj 549 407 bang;
#X msg 549 429 999;
#X obj 627 40 r compass_heading;
#X obj 780 12 r ball_angle;
#X obj 758 60 t b f;
#X obj 726 103 -;
#X obj 725 150 abs;
#X obj 725 172 < 90;
#X obj 725 195 s ball_side;
#X floatatom 679 200 5 0 0 0 - - -, f 5;
#X floatatom 892 36 5 0 0 0 - - -, f 5;
#X floatatom 624 79 5 0 0 0 - - -, f 5;
#X obj 726 125 expr if($f1 < -180 \, $f1 + 360 \, $f1);
#X obj 779 36 moses 900;
#X obj 95 164 s hall_effect;
#X obj 998 47 r hall_effect;
#X obj 983 314 bng 15 250 50 0 empty empty empty 17 7 0 10 -262144
-1 -1;
#X obj 954 411 tgl 15 0 empty empty stuck 17 7 0 10 -262144 -1 -1 1
1;
#X msg 959 379 1;
#X msg 891 382 0;
#X obj 993 113 tgl 15 0 empty empty empty 17 7 0 10 -262144 -1 -1 0
1;
#X obj 993 133 change;
#X obj 994 196 -;
#X obj 993 155 t f f;
#X floatatom 994 218 5 0 0 0 - - -, f 5;
#X text 1025 176 rising or falling edge;
#X text 1029 196 new - old;
#X floatatom 1103 72 5 0 0 0 - - -, f 5;
#X obj 967 469 s stuck;
#X text 998 309 pass of magnet;
#X obj 1001 90 > 600;
#X obj 959 357 delay 3000;
#X obj 103 133 s range;
#X floatatom 123 114 5 0 0 0 - - -, f 5;
#X obj 490 262 unpack f f;
#X floatatom 556 286 5 0 0 0 - - -, f 5;
#X floatatom 493 288 5 0 0 0 - - -, f 5;
#X obj 558 307 > 10;
#X obj 507 347 spigot;
#X obj 605 311 s blob_size;
#X floatatom 564 366 5 0 0 0 - - -, f 5;
#X floatatom 637 407 5 0 0 0 - - -, f 5;
#X obj 572 338 s goal_detected;
#X obj 389 342 s goal_detected;
#X obj 412 308 != -180;
#X obj 234 104 s start_game;
#X obj 1185 57 r start_game;
#X obj 1181 80 change;
#X obj 1185 101 t f f;
#X obj 1187 130 -;
#X floatatom 1187 152 5 0 0 0 - - -, f 5;
#X obj 1188 231 bng 15 250 50 0 empty empty empty 17 7 0 10 -262144
-1 -1;
#X obj 34 77 unpack f f f f f f f f f;
#X floatatom 1153 36 5 0 0 0 - - -, f 5;
#X obj 1175 271 delay 20000;
#X obj 987 437 spigot;
#X msg 1140 239 0;
#X msg 1175 293 1;
#X obj 447 381 == -180;
#X msg 447 403 -180;
#X obj 432 479 unpack f f;
#X floatatom 432 501 5 0 0 0 - - -, f 5;
#X obj 432 520 != -180;
#X obj 432 542 s goal_detected;
#X obj 580 505 s angle2goal;
#X obj 533 483 s blob_size;
#X connect 0 0 17 0;
#X connect 0 0 70 0;
#X connect 4 0 78 0;
#X connect 9 0 12 0;
#X connect 10 0 18 0;
#X connect 10 1 59 0;
#X connect 11 0 15 0;
#X connect 12 0 13 0;
#X connect 13 0 11 0;
#X connect 14 0 6 0;
#X connect 15 0 14 0;
#X connect 18 0 19 0;
#X connect 20 0 23 0;
#X connect 20 0 29 0;
#X connect 21 0 31 0;
#X connect 21 0 28 0;
#X connect 22 0 23 0;
#X connect 22 1 23 1;
#X connect 23 0 30 0;
#X connect 24 0 25 0;
#X connect 25 0 26 0;
#X connect 25 0 27 0;
#X connect 30 0 24 0;
#X connect 31 0 22 0;
#X connect 33 0 45 0;
#X connect 33 0 48 0;
#X connect 34 0 37 0;
#X connect 34 0 49 0;
#X connect 35 0 73 0;
#X connect 36 0 35 0;
#X connect 37 0 35 0;
#X connect 38 0 39 0;
#X connect 39 0 41 0;
#X connect 40 0 42 0;
#X connect 41 0 40 1;
#X connect 41 1 40 0;
#X connect 42 0 34 0;
#X connect 48 0 38 0;
#X connect 49 0 36 0;
#X connect 52 0 54 0;
#X connect 52 1 53 0;
#X connect 53 0 55 0;
#X connect 53 0 57 0;
#X connect 54 0 56 0;
#X connect 54 0 62 0;
#X connect 54 0 76 0;
#X connect 55 0 56 1;
#X connect 55 0 60 0;
#X connect 56 0 10 0;
#X connect 56 0 58 0;
#X connect 62 0 61 0;
#X connect 64 0 65 0;
#X connect 64 0 71 0;
#X connect 65 0 66 0;
#X connect 66 0 67 1;
#X connect 66 1 67 0;
#X connect 67 0 68 0;
#X connect 68 0 69 0;
#X connect 69 0 72 0;
#X connect 69 0 74 0;
#X connect 70 0 1 0;
#X connect 70 1 2 0;
#X connect 70 2 3 0;
#X connect 70 3 32 0;
#X connect 70 4 50 0;
#X connect 70 4 51 0;
#X connect 70 5 9 0;
#X connect 70 7 7 0;
#X connect 70 8 63 0;
#X connect 72 0 75 0;
#X connect 73 0 46 0;
#X connect 74 0 73 1;
#X connect 75 0 73 1;
#X connect 76 0 77 0;
#X connect 78 0 79 0;
#X connect 78 1 83 0;
#X connect 79 0 80 0;
#X connect 79 0 82 0;
#X connect 80 0 81 0;
