#N canvas 329 147 491 337 10;
#X obj 44 31 netreceive 7000;
#X obj 44 286 s ball_detected;
#X obj 65 230 s ball_angle;
#X obj 87 195 s ball_distance;
#X obj 334 29 netreceive 7001;
#X obj 334 66 s angle2goal;
#X obj 151 121 s compass_heading;
#X obj 108 164 s range;
#X obj 44 77 unpack f f f f f f f f f;
#X obj 305 125 s reflectance;
#X connect 0 0 8 0;
#X connect 4 0 5 0;
#X connect 8 0 1 0;
#X connect 8 1 2 0;
#X connect 8 2 3 0;
#X connect 8 3 7 0;
#X connect 8 5 6 0;
#X connect 8 7 9 0;
