#N canvas 1313 404 450 300 10;
#X obj 79 81 snapshot~;
#X obj 75 49 inlet~;
#X floatatom 115 130 5 0 0 0 - - -, f 5;
#X obj 205 71 metro 250;
#X obj 191 22 loadbang;
#X obj 159 129 tgl 15 0 empty empty empty 17 7 0 10 -262144 -1 -1 0
1;
#X connect 0 0 2 0;
#X connect 1 0 0 0;
#X connect 3 0 0 0;
#X connect 4 0 5 0;
#X connect 5 0 3 0;
#X coords 0 -1 1 1 85 60 1 100 100;
