#N canvas 3 49 1194 1520 10;
#X obj 56 274 list split 1;
#X obj 56 214 until;
#X obj 56 244 list append;
#X obj 56 184 t b l;
#X obj 194 241 bang;
#X obj 56 304 midiout 1;
#X msg 82 105 144 69 100;
#X text 159 105 Note on \, pitch 69 \, vel 100;
#X msg 108 135 128 69 100;
#X text 186 136 Note off \, pitch 69 \, vel 100;
#X text 22 22 How to serialise MIDI data \, i.e. how to take note message
lists and convert them into a series of bytes suitable for sending
out via [midiout];
#X text 51 334 However \, I've found that [midiout] doesn't work as
advertised on some systems. 64-bit thing? MIDI drivers?;
#X connect 0 0 5 0;
#X connect 0 1 2 1;
#X connect 0 2 4 0;
#X connect 1 0 2 0;
#X connect 2 0 0 0;
#X connect 3 0 1 0;
#X connect 3 1 2 1;
#X connect 4 0 1 1;
#X connect 6 0 3 0;
#X connect 8 0 3 0;
