#N canvas 102 51 893 540 8;
#X floatatom 82 -251 5 0 0 0 - - -, f 5;
#X floatatom 227 -263 5 0 0 0 - - -, f 5;
#X obj 71 -163 *;
#X obj 81 -221 expr 1-$f1;
#X obj 229 -223 expr 1-$f1;
#X text 33 -338 Naive Bayes (combined probablities) in Pd \, CME 2016-09-12
;
#X obj 200 -126 *;
#X obj 229 -203 t b f;
#X obj 227 -246 t b f;
#X obj 72 -120 /;
#X obj 117 -47 expr $f1 * $f2 / ($f1 * $f2 + (1-$f1)*(1-$f2));
#X floatatom 117 -27 5 0 0 0 - - -, f 5;
#X obj 514 -153 expr 1 / $f1;
#X obj 417 -153 expr 1 / $f1;
#X floatatom 514 -133 5 0 0 0 - - -, f 5;
#X floatatom 417 -133 5 0 0 0 - - -, f 5;
#X obj 476 -79 +;
#X obj 476 -59 expr 1/$f1;
#X floatatom 476 -39 5 0 0 0 - - -, f 5;
#X floatatom 106 100 5 0 0 0 - - -, f 5;
#X floatatom 183 92 5 0 0 0 - - -, f 5;
#X obj 105 130 expr 1-$f1;
#X obj 185 132 expr 1-$f1;
#X obj 114 185 *;
#X obj 185 152 t b f;
#X obj 306 174 *;
#X obj 306 150 t b f;
#X obj 180 237 /;
#X obj 306 194 t b f;
#X floatatom 180 257 8 0 0 0 - - -, f 8;
#X obj 180 274 + 1;
#X obj 180 294 expr 1/$f1;
#X floatatom 180 314 8 0 0 0 - - -, f 8;
#X text 83 -290 1st rough attempt:;
#X text 76 53 Cleaner attempt:;
#X obj 142 536 expr~ 1-$v1;
#X obj 142 496 sig~;
#X floatatom 142 478 5 0 0 0 - - -, f 5;
#X obj 142 516 clip~ 0 1;
#X obj 143 598 *~;
#X obj 213 661 /~;
#X obj 213 681 +~ 1;
#X obj 213 701 expr~ 1/$v1;
#X obj 232 536 expr~ 1-$v1;
#X obj 232 496 sig~;
#X floatatom 232 478 5 0 0 0 - - -, f 5;
#X obj 232 516 clip~ 0 1;
#X obj 336 598 *~;
#X obj 150 697 tgl 15 0 empty empty empty 17 7 0 10 -262144 -1 -1 1
1;
#X obj 213 741 snapshot~;
#X floatatom 213 761 8 0 0 0 - - -, f 8;
#X obj 150 718 metro 100;
#X obj 150 675 loadbang;
#X text 8 381 Signal-processing version:;
#X obj 312 536 expr~ 1-$v1;
#X obj 312 496 sig~;
#X floatatom 312 478 5 0 0 0 - - -, f 5;
#X obj 312 516 clip~ 0 1;
#X obj 143 619 *~;
#X obj 336 623 *~;
#X text 366 611 Product of inputs;
#X text 11 607 Product of 1-inputs;
#X text 415 384 Can have inhibitory inputs by subtracting from 1:;
#X floatatom 416 424 5 0 1 0 - - -, f 5;
#X obj 416 441 expr 1-$f1;
#X text 414 464 Can also have absolute override by using p=0 or p=1
\, e.g. for safety features like not continuing to drive when up against
an obstacle.;
#X obj 615 620 tgl 15 0 empty empty empty 17 7 0 10 -262144 -1 -1 1
1;
#X obj 615 660 snapshot~;
#X floatatom 615 680 8 0 0 0 - - -, f 8;
#X obj 615 640 metro 100;
#X obj 615 599 loadbang;
#X obj 145 457 hsl 50 15 0 1 0 0 empty empty empty -2 -8 0 10 -262144
-1 -1 0 1;
#X obj 235 457 hsl 50 15 0 1 0 0 empty empty empty -2 -8 0 10 -262144
-1 -1 0 1;
#X obj 315 457 hsl 50 15 0 1 0 0 empty empty empty -2 -8 0 10 -262144
-1 -1 4900 1;
#X obj 216 779 hsl 50 15 0 1 0 0 empty empty empty -2 -8 0 10 -262144
-1 -1 4900 1;
#X text 453 214 Floating-point underflow can be a problem \, so perhaps
work in the log domain: ...;
#X floatatom 304 302 8 0 0 0 - - -, f 8;
#X obj 304 282 expr if($f2==0 \, 0 \, 1 / ($f1 / $f2 + 1));
#X text 557 283 <- fix for div-by-0;
#X obj 605 760 tgl 15 0 empty empty empty 17 7 0 10 -262144 -1 -1 1
1;
#X obj 605 800 snapshot~;
#X floatatom 605 820 8 0 0 0 - - -, f 8;
#X obj 605 780 metro 100;
#X obj 605 739 loadbang;
#X text 485 531 TODO: maybe worth creating a Naive-Bayesian combiner
external that will generalise to <n> inputs...;
#X obj 294 698 expr~ if($v2==0 \, 0 \, 1 / ($v1 / $v2 + 1));
#X obj 608 835 hsl 50 15 0 1 0 0 empty empty empty -2 -8 0 10 -262144
-1 -1 0 1;
#X obj 419 404 hsl 50 15 0 1 0 0 empty empty empty -2 -8 0 10 -262144
-1 -1 4900 1;
#X text 545 699 <- Better approach that avoidsF division-by-0 that
would otherwise cause a 0 input to jump to 1 output.;
#X text 422 507 What if some inputs are 1 and some are 0? Contradiction?!
;
#X connect 0 0 3 0;
#X connect 0 0 2 0;
#X connect 0 0 10 0;
#X connect 0 0 13 0;
#X connect 1 0 4 0;
#X connect 1 0 8 0;
#X connect 1 0 12 0;
#X connect 3 0 6 0;
#X connect 4 0 7 0;
#X connect 7 0 6 0;
#X connect 7 1 6 1;
#X connect 8 0 2 0;
#X connect 8 0 10 0;
#X connect 8 1 2 1;
#X connect 8 1 10 1;
#X connect 10 0 11 0;
#X connect 12 0 14 0;
#X connect 13 0 15 0;
#X connect 14 0 16 1;
#X connect 15 0 16 0;
#X connect 16 0 17 0;
#X connect 17 0 18 0;
#X connect 19 0 21 0;
#X connect 19 0 25 0;
#X connect 20 0 22 0;
#X connect 20 0 26 0;
#X connect 21 0 23 0;
#X connect 22 0 24 0;
#X connect 23 0 27 0;
#X connect 23 0 77 0;
#X connect 24 0 23 0;
#X connect 24 1 23 1;
#X connect 25 0 28 0;
#X connect 26 0 25 0;
#X connect 26 1 25 1;
#X connect 27 0 29 0;
#X connect 28 0 27 0;
#X connect 28 0 77 0;
#X connect 28 1 27 1;
#X connect 28 1 77 1;
#X connect 29 0 30 0;
#X connect 30 0 31 0;
#X connect 31 0 32 0;
#X connect 35 0 39 0;
#X connect 36 0 38 0;
#X connect 37 0 36 0;
#X connect 38 0 35 0;
#X connect 38 0 47 0;
#X connect 39 0 58 0;
#X connect 40 0 41 0;
#X connect 40 0 67 0;
#X connect 41 0 42 0;
#X connect 42 0 49 0;
#X connect 43 0 39 1;
#X connect 44 0 46 0;
#X connect 45 0 44 0;
#X connect 46 0 43 0;
#X connect 46 0 47 1;
#X connect 47 0 59 0;
#X connect 48 0 51 0;
#X connect 49 0 50 0;
#X connect 50 0 74 0;
#X connect 51 0 49 0;
#X connect 52 0 48 0;
#X connect 54 0 58 1;
#X connect 55 0 57 0;
#X connect 56 0 55 0;
#X connect 57 0 54 0;
#X connect 57 0 59 1;
#X connect 58 0 40 0;
#X connect 58 0 85 0;
#X connect 59 0 40 1;
#X connect 59 0 85 1;
#X connect 63 0 64 0;
#X connect 64 0 56 0;
#X connect 66 0 69 0;
#X connect 67 0 68 0;
#X connect 69 0 67 0;
#X connect 70 0 66 0;
#X connect 71 0 37 0;
#X connect 72 0 45 0;
#X connect 73 0 56 0;
#X connect 77 0 76 0;
#X connect 79 0 82 0;
#X connect 80 0 81 0;
#X connect 81 0 86 0;
#X connect 82 0 80 0;
#X connect 83 0 79 0;
#X connect 85 0 80 0;
#X connect 87 0 63 0;
