#N canvas 3 52 1360 684 8;
#X floatatom 82 119 5 0 0 0 - - -, f 5;
#X floatatom 227 107 5 0 0 0 - - -, f 5;
#X obj 71 207 *;
#X obj 81 149 expr 1-$f1;
#X obj 229 147 expr 1-$f1;
#X text 33 32 Naive Bayes (combined probablities) in Pd \, CME 2016-09-12
;
#X obj 200 244 *;
#X obj 229 167 t b f;
#X obj 227 124 t b f;
#X obj 72 250 /;
#X obj 117 323 expr $f1 * $f2 / ($f1 * $f2 + (1-$f1)*(1-$f2));
#X floatatom 117 343 5 0 0 0 - - -, f 5;
#X obj 514 217 expr 1 / $f1;
#X obj 417 217 expr 1 / $f1;
#X floatatom 514 237 5 0 0 0 - - -, f 5;
#X floatatom 417 237 5 0 0 0 - - -, f 5;
#X obj 476 291 +;
#X obj 476 311 expr 1/$f1;
#X floatatom 476 331 5 0 0 0 - - -, f 5;
#X floatatom 676 104 5 0 0 0 - - -, f 5;
#X floatatom 753 96 5 0 0 0 - - -, f 5;
#X obj 675 134 expr 1-$f1;
#X obj 755 136 expr 1-$f1;
#X obj 684 189 *;
#X obj 755 156 t b f;
#X obj 876 178 *;
#X obj 876 154 t b f;
#X obj 750 241 /;
#X obj 876 198 t b f;
#X floatatom 750 261 8 0 0 0 - - -, f 8;
#X obj 750 278 + 1;
#X obj 750 298 expr 1/$f1;
#X floatatom 750 318 8 0 0 0 - - -, f 8;
#X text 83 80 1st rough attempt:;
#X text 646 57 Cleaner attempt:;
#X text 1004 74 Floating-point underflow can be a problem \, so perhaps
work in the log domain:;
#X connect 0 0 3 0;
#X connect 0 0 2 0;
#X connect 0 0 10 0;
#X connect 0 0 13 0;
#X connect 1 0 4 0;
#X connect 1 0 8 0;
#X connect 1 0 12 0;
#X connect 3 0 6 0;
#X connect 4 0 7 0;
#X connect 7 0 6 0;
#X connect 7 1 6 1;
#X connect 8 0 2 0;
#X connect 8 0 10 0;
#X connect 8 1 2 1;
#X connect 8 1 10 1;
#X connect 10 0 11 0;
#X connect 12 0 14 0;
#X connect 13 0 15 0;
#X connect 14 0 16 1;
#X connect 15 0 16 0;
#X connect 16 0 17 0;
#X connect 17 0 18 0;
#X connect 19 0 21 0;
#X connect 19 0 25 0;
#X connect 20 0 22 0;
#X connect 20 0 26 0;
#X connect 21 0 23 0;
#X connect 22 0 24 0;
#X connect 23 0 27 0;
#X connect 24 0 23 0;
#X connect 24 1 23 1;
#X connect 25 0 28 0;
#X connect 26 0 25 0;
#X connect 26 1 25 1;
#X connect 27 0 29 0;
#X connect 28 0 27 0;
#X connect 28 1 27 1;
#X connect 29 0 30 0;
#X connect 30 0 31 0;
#X connect 31 0 32 0;
