#N canvas 578 99 594 502 10;
#X obj 240 186 gemhead;
#X floatatom 352 212 0 0 0 0 - - -;
#X obj 240 246 color;
#X obj 240 339 square;
#X text 341 226 rotate the square;
#X msg 167 211 draw line;
#X msg 296 150 draw fill;
#X msg 346 375 width 1;
#X msg 347 395 width 10;
#X obj 240 297 rotate;
#X obj 20 59 cnv 15 220 70 empty empty empty 20 12 0 14 -195568 -66577
0;
#X text 379 260 (in degree);
#X obj 581 231 random 256;
#X floatatom 580 256 5 0 0 0 - - -, f 5;
#X obj 552 87 bng 15 250 50 0 empty empty empty 17 7 0 10 -262144 -1
-1;
#X obj 582 284 / 255;
#X floatatom 581 309 5 0 0 0 - - -, f 5;
#X obj 674 232 random 256;
#X floatatom 675 256 5 0 0 0 - - -, f 5;
#X obj 676 278 / 255;
#X floatatom 677 304 5 0 0 0 - - -, f 5;
#X obj 475 237 random 256;
#X floatatom 476 261 5 0 0 0 - - -, f 5;
#X obj 477 283 / 255;
#X floatatom 478 309 5 0 0 0 - - -, f 5;
#X obj 552 363 pack f f f;
#X obj 547 19 tgl 15 0 empty empty empty 17 7 0 10 -262144 -1 -1 1
1;
#X obj 550 57 metro 10;
#X obj 365 177 random 721;
#X obj 593 23 random 500;
#X obj 343 68 random 2;
#X obj 280 108 == 1;
#X obj 414 105 == 0;
#N canvas 31 50 454 304 gemwin 0;
#X obj 132 136 gemwin;
#X obj 67 89 outlet;
#X obj 67 10 inlet;
#X obj 67 41 route create;
#X msg 67 70 set destroy;
#X msg 182 68 set create;
#X msg 132 112 create \, 1;
#X msg 238 112 destroy;
#N canvas 87 154 247 179 Gem.init 0;
#X obj 59 46 loadbang;
#X msg 118 81 reset;
#X obj 118 113 outlet;
#X obj 59 65 t b b;
#X connect 0 0 3 0;
#X connect 1 0 2 0;
#X connect 3 1 1 0;
#X restore 289 80 pd Gem.init;
#X connect 2 0 3 0;
#X connect 3 0 4 0;
#X connect 3 0 6 0;
#X connect 3 1 5 0;
#X connect 3 1 7 0;
#X connect 4 0 1 0;
#X connect 5 0 1 0;
#X connect 6 0 0 0;
#X connect 7 0 0 0;
#X connect 8 0 0 0;
#X restore 25 103 pd gemwin;
#X msg 25 79 destroy;
#X connect 0 0 2 0;
#X connect 1 0 9 1;
#X connect 2 0 9 0;
#X connect 5 0 3 0;
#X connect 6 0 3 0;
#X connect 7 0 3 0;
#X connect 8 0 3 0;
#X connect 9 0 3 0;
#X connect 12 0 13 0;
#X connect 13 0 15 0;
#X connect 14 0 12 0;
#X connect 14 0 17 0;
#X connect 14 0 21 0;
#X connect 14 0 28 0;
#X connect 14 0 30 0;
#X connect 15 0 16 0;
#X connect 16 0 25 1;
#X connect 17 0 18 0;
#X connect 18 0 19 0;
#X connect 19 0 20 0;
#X connect 20 0 25 2;
#X connect 21 0 22 0;
#X connect 22 0 23 0;
#X connect 23 0 24 0;
#X connect 24 0 25 0;
#X connect 25 0 2 1;
#X connect 25 0 9 2;
#X connect 26 0 27 0;
#X connect 27 0 14 0;
#X connect 27 0 29 0;
#X connect 28 0 1 0;
#X connect 29 0 27 1;
#X connect 30 0 31 0;
#X connect 30 0 32 0;
#X connect 31 0 5 0;
#X connect 32 0 6 0;
#X connect 33 0 34 0;
#X connect 34 0 33 0;
